<?xml version="1.0" encoding="utf-8" ?>
<svg baseProfile="full" height="1024px" version="1.1" width="1536px" xmlns="http://www.w3.org/2000/svg" xmlns:ev="http://www.w3.org/2001/xml-events" xmlns:xlink="http://www.w3.org/1999/xlink"><defs /><path d="M 768.00,782.00 L 767.00,782.00 L 766.00,781.00 L 766.00,780.00 L 766.00,779.00 L 766.00,778.00 L 766.00,777.00 L 766.00,776.00 L 766.00,775.00 L 766.00,775.00 L 765.00,774.00 L 765.00,773.00 L 765.00,772.00 L 765.00,771.00 L 765.00,770.00 L 765.00,769.00 L 765.00,768.00 L 765.00,767.00 L 765.00,767.00 L 764.00,766.00 L 764.00,765.00 L 764.00,764.00 L 764.00,763.00 L 764.00,762.00 L 764.00,761.00 L 764.00,760.00 L 764.00,759.00 L 764.00,759.00 L 763.00,758.00 L 763.00,757.00 L 763.00,756.00 L 763.00,755.00 L 763.00,754.00 L 763.00,753.00 L 763.00,752.00 L 763.00,752.00 L 762.00,751.00 L 762.00,750.00 L 762.00,749.00 L 762.00,748.00 L 762.00,747.00 L 762.00,746.00 L 762.00,746.00 L 761.00,745.00 L 761.00,744.00 L 761.00,743.00 L 761.00,742.00 L 761.00,741.00 L 761.00,740.00 L 761.00,739.00 L 761.00,739.00 L 760.00,738.00 L 760.00,737.00 L 760.00,736.00 L 760.00,735.00 L 760.00,734.00 L 760.00,733.00 L 760.00,733.00 L 759.00,732.00 L 759.00,731.00 L 759.00,730.00 L 759.00,729.00 L 759.00,728.00 L 759.00,728.00 L 758.00,727.00 L 758.00,726.00 L 758.00,725.00 L 758.00,724.00 L 758.00,723.00 L 758.00,723.00 L 757.00,722.00 L 757.00,721.00 L 757.00,720.00 L 757.00,719.00 L 757.00,718.00 L 757.00,717.00 L 757.00,716.00 L 757.00,715.00 L 757.00,714.00 L 757.00,714.00 L 756.00,713.00 L 756.00,712.00 L 756.00,711.00 L 756.00,710.00 L 756.00,709.00 L 756.00,708.00 L 756.00,708.00 L 755.00,707.00 L 755.00,706.00 L 755.00,705.00 L 755.00,704.00 L 755.00,703.00 L 755.00,702.00 L 755.00,701.00 L 755.00,700.00 L 755.00,700.00 L 754.00,699.00 L 754.00,698.00 L 754.00,697.00 L 754.00,696.00 L 754.00,695.00 L 754.00,694.00 L 754.00,693.00 L 754.00,692.00 L 754.00,691.00 L 754.00,691.00 L 753.00,690.00 L 753.00,689.00 L 753.00,688.00 L 753.00,687.00 L 753.00,686.00 L 753.00,685.00 L 753.00,684.00 L 753.00,684.00 L 752.00,683.00 L 752.00,682.00 L 752.00,681.00 L 752.00,680.00 L 752.00,679.00 L 752.00,678.00 L 752.00,677.00 L 752.00,676.00 L 752.00,676.00 L 751.00,675.00 L 751.00,674.00 L 751.00,673.00 L 751.00,672.00 L 751.00,671.00 L 751.00,670.00 L 751.00,669.00 L 751.00,668.00 L 751.00,667.00 L 751.00,667.00 L 750.00,666.00 L 750.00,665.00 L 750.00,664.00 L 750.00,663.00 L 750.00,662.00 L 750.00,661.00 L 750.00,660.00 L 750.00,660.00 L 749.00,659.00 L 749.00,658.00 L 749.00,657.00 L 749.00,656.00 L 749.00,655.00 L 749.00,654.00 L 749.00,653.00 L 749.00,652.00 L 749.00,651.00 L 749.00,651.00 L 748.00,650.00 L 748.00,649.00 L 748.00,648.00 L 748.00,647.00 L 748.00,646.00 L 748.00,645.00 L 748.00,644.00 L 748.00,644.00 L 747.00,643.00 L 747.00,642.00 L 747.00,641.00 L 747.00,640.00 L 747.00,639.00 L 747.00,638.00 L 747.00,637.00 L 747.00,636.00 L 747.00,636.00 L 746.00,635.00 L 746.00,634.00 L 746.00,633.00 L 746.00,632.00 L 746.00,631.00 L 746.00,630.00 L 746.00,629.00 L 746.00,628.00 L 746.00,628.00 L 745.00,627.00 L 745.00,626.00 L 745.00,625.00 L 745.00,624.00 L 745.00,623.00 L 745.00,622.00 L 745.00,622.00 L 744.00,621.00 L 744.00,620.00 L 744.00,619.00 L 744.00,618.00 L 744.00,617.00 L 744.00,616.00 L 744.00,616.00 L 743.00,615.00 L 743.00,614.00 L 743.00,613.00 L 743.00,612.00 L 743.00,611.00 L 743.00,610.00 L 743.00,610.00 L 742.00,609.00 L 742.00,608.00 L 742.00,607.00 L 742.00,606.00 L 742.00,605.00 L 742.00,604.00 L 742.00,603.00 L 742.00,603.00 L 741.00,602.00 L 741.00,601.00 L 741.00,600.00 L 741.00,599.00 L 741.00,598.00 L 741.00,597.00 L 741.00,597.00 L 740.00,596.00 L 740.00,595.00 L 740.00,594.00 L 740.00,593.00 L 740.00,592.00 L 740.00,591.00 L 740.00,591.00 L 739.00,590.00 L 739.00,589.00 L 739.00,588.00 L 739.00,587.00 L 739.00,586.00 L 739.00,585.00 L 739.00,584.00 L 739.00,584.00 L 738.00,583.00 L 738.00,582.00 L 738.00,581.00 L 738.00,580.00 L 738.00,579.00 L 738.00,578.00 L 738.00,577.00 L 738.00,576.00 L 738.00,576.00 L 737.00,575.00 L 737.00,574.00 L 737.00,573.00 L 737.00,572.00 L 737.00,571.00 L 737.00,570.00 L 737.00,569.00 L 737.00,569.00 L 736.00,568.00 L 736.00,567.00 L 736.00,566.00 L 736.00,565.00 L 736.00,564.00 L 736.00,563.00 L 736.00,563.00 L 735.00,562.00 L 735.00,561.00 L 735.00,560.00 L 735.00,559.00 L 735.00,558.00 L 735.00,557.00 L 735.00,556.00 L 735.00,555.00 L 735.00,554.00 L 735.00,554.00 L 734.00,553.00 L 734.00,552.00 L 734.00,551.00 L 734.00,550.00 L 734.00,549.00 L 734.00,548.00 L 734.00,547.00 L 734.00,546.00 L 734.00,546.00 L 733.00,545.00 L 733.00,544.00 L 733.00,543.00 L 733.00,543.00 L 733.00,543.00 L 732.00,544.00 L 731.00,544.00 L 731.00,544.00 L 730.00,545.00 L 729.00,545.00 L 729.00,545.00 L 728.00,546.00 L 728.00,546.00 L 727.00,547.00 L 726.00,547.00 L 726.00,547.00 L 725.00,548.00 L 724.00,548.00 L 724.00,548.00 L 723.00,549.00 L 723.00,549.00 L 722.00,550.00 L 721.00,550.00 L 721.00,550.00 L 720.00,551.00 L 720.00,551.00 L 719.00,552.00 L 719.00,552.00 L 718.00,553.00 L 717.00,553.00 L 717.00,553.00 L 716.00,554.00 L 716.00,554.00 L 715.00,555.00 L 714.00,555.00 L 714.00,555.00 L 713.00,556.00 L 713.00,556.00 L 712.00,557.00 L 711.00,557.00 L 711.00,557.00 L 710.00,558.00 L 710.00,558.00 L 709.00,559.00 L 708.00,559.00 L 708.00,559.00 L 707.00,560.00 L 707.00,560.00 L 706.00,561.00 L 705.00,561.00 L 705.00,561.00 L 704.00,562.00 L 704.00,562.00 L 703.00,563.00 L 702.00,563.00 L 702.00,563.00 L 701.00,564.00 L 701.00,564.00 L 700.00,565.00 L 699.00,565.00 L 699.00,565.00 L 698.00,566.00 L 698.00,566.00 L 697.00,567.00 L 696.00,567.00 L 696.00,567.00 L 695.00,568.00 L 694.00,568.00 L 694.00,568.00 L 693.00,569.00 L 693.00,569.00 L 692.00,570.00 L 692.00,570.00 L 691.00,571.00 L 690.00,571.00 L 690.00,571.00 L 689.00,572.00 L 689.00,572.00 L 688.00,573.00 L 687.00,573.00 L 687.00,573.00 L 686.00,574.00 L 685.00,574.00 L 685.00,574.00 L 684.00,575.00 L 684.00,575.00 L 683.00,576.00 L 682.00,576.00 L 682.00,576.00 L 681.00,577.00 L 681.00,577.00 L 680.00,578.00 L 679.00,578.00 L 679.00,578.00 L 678.00,579.00 L 678.00,579.00 L 677.00,580.00 L 676.00,580.00 L 676.00,580.00 L 675.00,581.00 L 675.00,581.00 L 674.00,582.00 L 673.00,582.00 L 673.00,582.00 L 672.00,583.00 L 672.00,583.00 L 671.00,584.00 L 671.00,584.00 L 670.00,585.00 L 669.00,585.00 L 669.00,585.00 L 668.00,586.00 L 668.00,586.00 L 667.00,587.00 L 666.00,587.00 L 666.00,587.00 L 665.00,588.00 L 665.00,588.00 L 664.00,589.00 L 663.00,589.00 L 663.00,589.00 L 662.00,590.00 L 662.00,590.00 L 661.00,591.00 L 661.00,591.00 L 660.00,592.00 L 659.00,592.00 L 659.00,592.00 L 658.00,593.00 L 658.00,593.00 L 657.00,594.00 L 656.00,594.00 L 656.00,594.00 L 655.00,595.00 L 655.00,595.00 L 654.00,596.00 L 653.00,596.00 L 653.00,596.00 L 652.00,597.00 L 652.00,597.00 L 651.00,598.00 L 650.00,598.00 L 650.00,598.00 L 649.00,599.00 L 649.00,599.00 L 648.00,600.00 L 647.00,600.00 L 647.00,600.00 L 646.00,601.00 L 646.00,601.00 L 645.00,602.00 L 644.00,602.00 L 643.00,602.00 L 642.00,601.00 L 643.00,600.00 L 643.00,600.00 L 644.00,599.00 L 644.00,599.00 L 645.00,598.00 L 645.00,598.00 L 645.00,597.00 L 646.00,596.00 L 646.00,596.00 L 647.00,595.00 L 647.00,595.00 L 647.00,594.00 L 648.00,593.00 L 648.00,593.00 L 649.00,592.00 L 649.00,592.00 L 649.00,591.00 L 650.00,590.00 L 650.00,590.00 L 651.00,589.00 L 651.00,589.00 L 651.00,588.00 L 652.00,587.00 L 652.00,587.00 L 653.00,586.00 L 653.00,586.00 L 654.00,585.00 L 654.00,585.00 L 654.00,584.00 L 655.00,583.00 L 655.00,583.00 L 656.00,582.00 L 656.00,582.00 L 656.00,581.00 L 657.00,580.00 L 657.00,580.00 L 658.00,579.00 L 658.00,579.00 L 658.00,578.00 L 659.00,577.00 L 659.00,577.00 L 660.00,576.00 L 660.00,576.00 L 660.00,575.00 L 661.00,574.00 L 661.00,574.00 L 662.00,573.00 L 662.00,573.00 L 662.00,572.00 L 663.00,571.00 L 663.00,571.00 L 664.00,570.00 L 664.00,570.00 L 665.00,569.00 L 665.00,569.00 L 665.00,568.00 L 666.00,567.00 L 666.00,567.00 L 667.00,566.00 L 667.00,566.00 L 667.00,565.00 L 668.00,564.00 L 668.00,564.00 L 669.00,563.00 L 669.00,563.00 L 670.00,562.00 L 670.00,562.00 L 670.00,561.00 L 671.00,560.00 L 671.00,560.00 L 672.00,559.00 L 672.00,559.00 L 673.00,558.00 L 673.00,558.00 L 673.00,557.00 L 674.00,556.00 L 674.00,556.00 L 675.00,555.00 L 675.00,555.00 L 675.00,554.00 L 676.00,553.00 L 676.00,553.00 L 677.00,552.00 L 677.00,552.00 L 677.00,551.00 L 678.00,550.00 L 678.00,550.00 L 679.00,549.00 L 679.00,549.00 L 679.00,548.00 L 680.00,547.00 L 680.00,547.00 L 681.00,546.00 L 681.00,546.00 L 682.00,545.00 L 682.00,545.00 L 682.00,544.00 L 683.00,543.00 L 683.00,543.00 L 683.00,542.00 L 684.00,541.00 L 684.00,541.00 L 685.00,540.00 L 685.00,540.00 L 686.00,539.00 L 686.00,539.00 L 686.00,538.00 L 687.00,537.00 L 687.00,537.00 L 688.00,536.00 L 688.00,536.00 L 689.00,535.00 L 689.00,535.00 L 689.00,534.00 L 690.00,533.00 L 690.00,533.00 L 691.00,532.00 L 691.00,532.00 L 691.00,531.00 L 692.00,530.00 L 692.00,530.00 L 693.00,529.00 L 693.00,529.00 L 693.00,528.00 L 694.00,527.00 L 694.00,527.00 L 695.00,526.00 L 695.00,526.00 L 696.00,525.00 L 696.00,525.00 L 696.00,524.00 L 697.00,523.00 L 697.00,523.00 L 698.00,522.00 L 698.00,522.00 L 698.00,521.00 L 699.00,520.00 L 699.00,520.00 L 699.00,519.00 L 700.00,518.00 L 700.00,518.00 L 701.00,517.00 L 701.00,517.00 L 702.00,516.00 L 702.00,516.00 L 702.00,516.00 L 701.00,516.00 L 700.00,516.00 L 699.00,516.00 L 698.00,515.00 L 698.00,515.00 L 697.00,515.00 L 696.00,515.00 L 695.00,515.00 L 694.00,515.00 L 693.00,514.00 L 693.00,514.00 L 692.00,514.00 L 691.00,514.00 L 690.00,514.00 L 689.00,514.00 L 688.00,514.00 L 687.00,513.00 L 687.00,513.00 L 686.00,513.00 L 685.00,513.00 L 684.00,513.00 L 683.00,513.00 L 682.00,512.00 L 682.00,512.00 L 681.00,512.00 L 680.00,512.00 L 679.00,512.00 L 678.00,512.00 L 677.00,512.00 L 676.00,511.00 L 676.00,511.00 L 675.00,511.00 L 674.00,511.00 L 673.00,511.00 L 672.00,511.00 L 671.00,511.00 L 670.00,510.00 L 670.00,510.00 L 669.00,510.00 L 668.00,510.00 L 667.00,510.00 L 666.00,510.00 L 665.00,510.00 L 664.00,509.00 L 664.00,509.00 L 663.00,509.00 L 662.00,509.00 L 661.00,509.00 L 660.00,509.00 L 659.00,509.00 L 658.00,508.00 L 658.00,508.00 L 657.00,508.00 L 656.00,508.00 L 655.00,508.00 L 654.00,508.00 L 653.00,508.00 L 652.00,507.00 L 652.00,507.00 L 651.00,507.00 L 650.00,507.00 L 649.00,507.00 L 648.00,507.00 L 647.00,507.00 L 646.00,507.00 L 645.00,506.00 L 645.00,506.00 L 644.00,506.00 L 643.00,506.00 L 642.00,506.00 L 641.00,506.00 L 640.00,505.00 L 640.00,505.00 L 639.00,505.00 L 638.00,505.00 L 637.00,505.00 L 636.00,504.00 L 636.00,504.00 L 635.00,504.00 L 634.00,504.00 L 633.00,504.00 L 632.00,504.00 L 631.00,504.00 L 630.00,503.00 L 630.00,503.00 L 629.00,503.00 L 628.00,503.00 L 627.00,503.00 L 626.00,503.00 L 625.00,502.00 L 625.00,502.00 L 624.00,502.00 L 623.00,502.00 L 622.00,502.00 L 621.00,502.00 L 620.00,501.00 L 620.00,501.00 L 619.00,501.00 L 618.00,501.00 L 617.00,501.00 L 616.00,501.00 L 615.00,501.00 L 614.00,500.00 L 614.00,500.00 L 613.00,500.00 L 612.00,500.00 L 611.00,500.00 L 610.00,500.00 L 609.00,499.00 L 609.00,499.00 L 608.00,499.00 L 607.00,499.00 L 606.00,499.00 L 605.00,499.00 L 604.00,498.00 L 604.00,498.00 L 603.00,498.00 L 602.00,498.00 L 601.00,498.00 L 600.00,498.00 L 599.00,497.00 L 599.00,497.00 L 598.00,497.00 L 597.00,497.00 L 596.00,497.00 L 595.00,497.00 L 594.00,496.00 L 594.00,496.00 L 593.00,496.00 L 592.00,496.00 L 591.00,496.00 L 590.00,496.00 L 589.00,495.00 L 589.00,495.00 L 588.00,495.00 L 587.00,495.00 L 586.00,495.00 L 585.00,495.00 L 584.00,494.00 L 584.00,494.00 L 583.00,494.00 L 582.00,494.00 L 581.00,494.00 L 580.00,494.00 L 579.00,494.00 L 578.00,493.00 L 578.00,493.00 L 577.00,493.00 L 576.00,493.00 L 575.00,493.00 L 574.00,493.00 L 573.00,492.00 L 573.00,492.00 L 572.00,492.00 L 571.00,492.00 L 570.00,492.00 L 569.00,492.00 L 568.00,492.00 L 567.00,491.00 L 567.00,491.00 L 566.00,491.00 L 565.00,491.00 L 564.00,491.00 L 563.00,491.00 L 562.00,491.00 L 561.00,491.00 L 560.00,490.00 L 560.00,490.00 L 559.00,490.00 L 558.00,490.00 L 557.00,490.00 L 556.00,490.00 L 555.00,490.00 L 554.00,490.00 L 553.00,489.00 L 553.00,489.00 L 552.00,489.00 L 551.00,489.00 L 550.00,489.00 L 549.00,488.00 L 549.00,488.00 L 548.00,488.00 L 547.00,488.00 L 546.00,488.00 L 545.00,488.00 L 544.00,487.00 L 544.00,487.00 L 543.00,487.00 L 542.00,487.00 L 541.00,487.00 L 540.00,487.00 L 539.00,486.00 L 539.00,486.00 L 538.00,486.00 L 537.00,486.00 L 536.00,486.00 L 535.00,486.00 L 534.00,486.00 L 533.00,485.00 L 533.00,485.00 L 532.00,485.00 L 531.00,485.00 L 530.00,485.00 L 529.00,485.00 L 528.00,484.00 L 528.00,484.00 L 527.00,484.00 L 526.00,484.00 L 525.00,484.00 L 524.00,484.00 L 523.00,484.00 L 522.00,483.00 L 522.00,483.00 L 521.00,483.00 L 520.00,483.00 L 519.00,482.00 L 519.00,482.00 L 518.00,481.00 L 519.00,480.00 L 520.00,480.00 L 521.00,480.00 L 521.00,480.00 L 522.00,479.00 L 523.00,479.00 L 524.00,479.00 L 525.00,479.00 L 526.00,479.00 L 526.00,479.00 L 527.00,478.00 L 528.00,478.00 L 529.00,478.00 L 530.00,478.00 L 531.00,478.00 L 532.00,478.00 L 533.00,478.00 L 533.00,478.00 L 534.00,477.00 L 535.00,477.00 L 536.00,477.00 L 537.00,477.00 L 538.00,477.00 L 538.00,477.00 L 539.00,476.00 L 540.00,476.00 L 541.00,476.00 L 542.00,476.00 L 543.00,476.00 L 544.00,476.00 L 544.00,476.00 L 545.00,475.00 L 546.00,475.00 L 547.00,475.00 L 548.00,475.00 L 549.00,475.00 L 549.00,475.00 L 550.00,474.00 L 551.00,474.00 L 552.00,474.00 L 553.00,474.00 L 554.00,474.00 L 554.00,474.00 L 555.00,473.00 L 556.00,473.00 L 557.00,473.00 L 558.00,473.00 L 559.00,473.00 L 560.00,473.00 L 560.00,473.00 L 561.00,472.00 L 562.00,472.00 L 563.00,472.00 L 564.00,472.00 L 565.00,472.00 L 565.00,472.00 L 566.00,471.00 L 567.00,471.00 L 568.00,471.00 L 569.00,471.00 L 570.00,471.00 L 570.00,471.00 L 571.00,470.00 L 572.00,470.00 L 573.00,470.00 L 573.00,470.00 L 574.00,469.00 L 575.00,469.00 L 576.00,469.00 L 577.00,469.00 L 578.00,469.00 L 579.00,469.00 L 580.00,469.00 L 580.00,469.00 L 581.00,468.00 L 582.00,468.00 L 583.00,468.00 L 584.00,468.00 L 585.00,468.00 L 585.00,468.00 L 586.00,467.00 L 587.00,467.00 L 588.00,467.00 L 589.00,467.00 L 590.00,467.00 L 591.00,467.00 L 591.00,467.00 L 592.00,466.00 L 593.00,466.00 L 594.00,466.00 L 595.00,466.00 L 596.00,466.00 L 596.00,466.00 L 597.00,465.00 L 598.00,465.00 L 599.00,465.00 L 600.00,465.00 L 601.00,465.00 L 602.00,465.00 L 602.00,465.00 L 603.00,464.00 L 604.00,464.00 L 605.00,464.00 L 606.00,464.00 L 607.00,464.00 L 608.00,464.00 L 608.00,464.00 L 609.00,463.00 L 610.00,463.00 L 611.00,463.00 L 612.00,463.00 L 613.00,463.00 L 613.00,463.00 L 614.00,462.00 L 615.00,462.00 L 616.00,462.00 L 617.00,462.00 L 617.00,462.00 L 618.00,461.00 L 619.00,461.00 L 620.00,461.00 L 621.00,461.00 L 622.00,461.00 L 623.00,461.00 L 623.00,461.00 L 624.00,460.00 L 625.00,460.00 L 626.00,460.00 L 627.00,460.00 L 628.00,460.00 L 629.00,460.00 L 629.00,460.00 L 630.00,459.00 L 631.00,459.00 L 632.00,459.00 L 633.00,459.00 L 634.00,459.00 L 634.00,459.00 L 635.00,458.00 L 636.00,458.00 L 637.00,458.00 L 638.00,458.00 L 639.00,458.00 L 640.00,458.00 L 640.00,458.00 L 641.00,457.00 L 642.00,457.00 L 643.00,457.00 L 644.00,457.00 L 645.00,457.00 L 646.00,457.00 L 646.00,457.00 L 647.00,456.00 L 648.00,456.00 L 649.00,456.00 L 650.00,456.00 L 651.00,456.00 L 651.00,456.00 L 652.00,455.00 L 653.00,455.00 L 654.00,455.00 L 655.00,455.00 L 656.00,455.00 L 656.00,455.00 L 657.00,454.00 L 658.00,454.00 L 659.00,454.00 L 660.00,454.00 L 661.00,454.00 L 661.00,454.00 L 662.00,453.00 L 663.00,453.00 L 664.00,453.00 L 665.00,453.00 L 666.00,453.00 L 667.00,453.00 L 667.00,453.00 L 668.00,452.00 L 669.00,452.00 L 670.00,452.00 L 671.00,452.00 L 672.00,452.00 L 672.00,452.00 L 673.00,451.00 L 674.00,451.00 L 675.00,451.00 L 676.00,451.00 L 676.00,451.00 L 677.00,450.00 L 678.00,450.00 L 679.00,450.00 L 680.00,450.00 L 681.00,450.00 L 681.00,450.00 L 682.00,449.00 L 683.00,449.00 L 684.00,449.00 L 685.00,449.00 L 686.00,449.00 L 687.00,449.00 L 687.00,449.00 L 688.00,448.00 L 689.00,448.00 L 690.00,448.00 L 691.00,448.00 L 692.00,448.00 L 692.00,448.00 L 693.00,447.00 L 694.00,447.00 L 695.00,447.00 L 696.00,447.00 L 697.00,447.00 L 697.00,447.00 L 698.00,446.00 L 699.00,446.00 L 700.00,446.00 L 701.00,446.00 L 702.00,446.00 L 702.00,446.00 L 702.00,446.00 L 701.00,446.00 L 700.00,445.00 L 700.00,444.00 L 700.00,443.00 L 700.00,443.00 L 699.00,442.00 L 699.00,442.00 L 698.00,441.00 L 698.00,440.00 L 698.00,440.00 L 697.00,439.00 L 697.00,439.00 L 696.00,438.00 L 696.00,437.00 L 696.00,437.00 L 695.00,436.00 L 695.00,436.00 L 694.00,435.00 L 694.00,435.00 L 693.00,434.00 L 693.00,433.00 L 693.00,433.00 L 692.00,432.00 L 692.00,432.00 L 691.00,431.00 L 691.00,430.00 L 691.00,430.00 L 690.00,429.00 L 690.00,429.00 L 689.00,428.00 L 689.00,428.00 L 688.00,427.00 L 688.00,426.00 L 688.00,426.00 L 687.00,425.00 L 687.00,425.00 L 686.00,424.00 L 686.00,423.00 L 686.00,423.00 L 685.00,422.00 L 685.00,422.00 L 684.00,421.00 L 684.00,421.00 L 683.00,420.00 L 683.00,419.00 L 683.00,419.00 L 682.00,418.00 L 682.00,418.00 L 681.00,417.00 L 681.00,416.00 L 681.00,416.00 L 680.00,415.00 L 680.00,415.00 L 679.00,414.00 L 679.00,414.00 L 678.00,413.00 L 678.00,412.00 L 678.00,412.00 L 677.00,411.00 L 677.00,411.00 L 676.00,410.00 L 676.00,409.00 L 676.00,409.00 L 675.00,408.00 L 675.00,408.00 L 674.00,407.00 L 674.00,406.00 L 674.00,406.00 L 673.00,405.00 L 673.00,405.00 L 672.00,404.00 L 672.00,403.00 L 672.00,403.00 L 671.00,402.00 L 671.00,402.00 L 670.00,401.00 L 670.00,401.00 L 669.00,400.00 L 669.00,400.00 L 668.00,399.00 L 668.00,398.00 L 668.00,398.00 L 667.00,397.00 L 667.00,397.00 L 666.00,396.00 L 666.00,395.00 L 666.00,395.00 L 665.00,394.00 L 665.00,394.00 L 664.00,393.00 L 664.00,393.00 L 663.00,392.00 L 663.00,391.00 L 663.00,391.00 L 662.00,390.00 L 662.00,390.00 L 661.00,389.00 L 661.00,388.00 L 661.00,388.00 L 660.00,387.00 L 660.00,387.00 L 659.00,386.00 L 659.00,385.00 L 659.00,385.00 L 658.00,384.00 L 658.00,384.00 L 657.00,383.00 L 657.00,382.00 L 657.00,382.00 L 656.00,381.00 L 656.00,381.00 L 655.00,380.00 L 655.00,379.00 L 655.00,379.00 L 654.00,378.00 L 654.00,378.00 L 653.00,377.00 L 653.00,377.00 L 652.00,376.00 L 652.00,375.00 L 652.00,375.00 L 651.00,374.00 L 651.00,374.00 L 650.00,373.00 L 650.00,373.00 L 649.00,372.00 L 649.00,371.00 L 649.00,371.00 L 648.00,370.00 L 648.00,370.00 L 647.00,369.00 L 647.00,369.00 L 646.00,368.00 L 646.00,367.00 L 646.00,367.00 L 645.00,366.00 L 645.00,366.00 L 644.00,365.00 L 644.00,364.00 L 644.00,364.00 L 643.00,363.00 L 643.00,363.00 L 642.00,362.00 L 642.00,361.00 L 642.00,361.00 L 641.00,360.00 L 641.00,360.00 L 640.00,359.00 L 641.00,358.00 L 642.00,358.00 L 643.00,358.00 L 644.00,359.00 L 644.00,359.00 L 645.00,360.00 L 645.00,360.00 L 646.00,361.00 L 646.00,361.00 L 647.00,361.00 L 648.00,362.00 L 648.00,362.00 L 649.00,363.00 L 649.00,363.00 L 650.00,363.00 L 651.00,364.00 L 651.00,364.00 L 652.00,365.00 L 652.00,365.00 L 653.00,365.00 L 654.00,366.00 L 654.00,366.00 L 655.00,367.00 L 655.00,367.00 L 656.00,368.00 L 656.00,368.00 L 657.00,368.00 L 658.00,369.00 L 658.00,369.00 L 659.00,370.00 L 659.00,370.00 L 660.00,370.00 L 661.00,371.00 L 661.00,371.00 L 662.00,371.00 L 663.00,372.00 L 663.00,372.00 L 664.00,373.00 L 664.00,373.00 L 665.00,373.00 L 666.00,374.00 L 666.00,374.00 L 667.00,375.00 L 667.00,375.00 L 668.00,375.00 L 669.00,376.00 L 669.00,376.00 L 670.00,377.00 L 670.00,377.00 L 671.00,378.00 L 671.00,378.00 L 672.00,378.00 L 673.00,379.00 L 673.00,379.00 L 674.00,380.00 L 674.00,380.00 L 675.00,380.00 L 676.00,381.00 L 676.00,381.00 L 677.00,382.00 L 677.00,382.00 L 678.00,382.00 L 679.00,383.00 L 679.00,383.00 L 680.00,384.00 L 680.00,384.00 L 681.00,385.00 L 681.00,385.00 L 682.00,385.00 L 683.00,386.00 L 683.00,386.00 L 684.00,387.00 L 684.00,387.00 L 685.00,387.00 L 686.00,388.00 L 686.00,388.00 L 687.00,388.00 L 688.00,389.00 L 688.00,389.00 L 689.00,389.00 L 690.00,390.00 L 690.00,390.00 L 691.00,391.00 L 691.00,391.00 L 692.00,391.00 L 693.00,392.00 L 693.00,392.00 L 694.00,393.00 L 694.00,393.00 L 695.00,393.00 L 696.00,394.00 L 696.00,394.00 L 697.00,395.00 L 697.00,395.00 L 698.00,395.00 L 699.00,396.00 L 699.00,396.00 L 700.00,397.00 L 700.00,397.00 L 701.00,397.00 L 702.00,398.00 L 702.00,398.00 L 703.00,399.00 L 703.00,399.00 L 704.00,400.00 L 704.00,400.00 L 705.00,401.00 L 705.00,401.00 L 706.00,401.00 L 707.00,402.00 L 707.00,402.00 L 708.00,403.00 L 708.00,403.00 L 709.00,403.00 L 710.00,404.00 L 710.00,404.00 L 711.00,405.00 L 711.00,405.00 L 712.00,405.00 L 713.00,406.00 L 713.00,406.00 L 714.00,407.00 L 714.00,407.00 L 715.00,407.00 L 716.00,408.00 L 716.00,408.00 L 717.00,409.00 L 717.00,409.00 L 718.00,409.00 L 719.00,410.00 L 719.00,410.00 L 720.00,410.00 L 721.00,411.00 L 721.00,411.00 L 722.00,412.00 L 722.00,412.00 L 723.00,412.00 L 724.00,413.00 L 724.00,413.00 L 725.00,414.00 L 725.00,414.00 L 726.00,414.00 L 727.00,415.00 L 727.00,415.00 L 728.00,416.00 L 728.00,416.00 L 729.00,417.00 L 729.00,417.00 L 730.00,418.00 L 730.00,418.00 L 731.00,418.00 L 732.00,419.00 L 732.00,419.00 L 733.00,419.00 L 734.00,420.00 L 734.00,420.00 L 734.00,420.00 L 734.00,419.00 L 734.00,418.00 L 734.00,417.00 L 734.00,416.00 L 734.00,415.00 L 734.00,414.00 L 734.00,413.00 L 735.00,412.00 L 735.00,412.00 L 735.00,411.00 L 735.00,410.00 L 735.00,409.00 L 736.00,408.00 L 736.00,408.00 L 736.00,407.00 L 736.00,406.00 L 736.00,405.00 L 736.00,404.00 L 736.00,403.00 L 736.00,402.00 L 737.00,401.00 L 737.00,401.00 L 737.00,400.00 L 737.00,399.00 L 737.00,398.00 L 737.00,397.00 L 738.00,396.00 L 738.00,396.00 L 738.00,395.00 L 738.00,394.00 L 738.00,393.00 L 738.00,392.00 L 738.00,391.00 L 739.00,390.00 L 739.00,390.00 L 739.00,389.00 L 739.00,388.00 L 739.00,387.00 L 739.00,386.00 L 740.00,385.00 L 740.00,385.00 L 740.00,384.00 L 740.00,383.00 L 740.00,382.00 L 740.00,381.00 L 741.00,380.00 L 741.00,380.00 L 741.00,379.00 L 741.00,378.00 L 741.00,377.00 L 741.00,376.00 L 741.00,375.00 L 742.00,374.00 L 742.00,374.00 L 742.00,373.00 L 742.00,372.00 L 742.00,371.00 L 742.00,370.00 L 743.00,369.00 L 743.00,369.00 L 743.00,368.00 L 743.00,367.00 L 743.00,366.00 L 743.00,365.00 L 744.00,364.00 L 744.00,364.00 L 744.00,363.00 L 744.00,362.00 L 744.00,361.00 L 744.00,360.00 L 745.00,359.00 L 745.00,359.00 L 745.00,358.00 L 745.00,357.00 L 745.00,356.00 L 745.00,355.00 L 745.00,354.00 L 746.00,353.00 L 746.00,353.00 L 746.00,352.00 L 746.00,351.00 L 746.00,350.00 L 746.00,349.00 L 746.00,348.00 L 747.00,347.00 L 747.00,347.00 L 747.00,346.00 L 747.00,345.00 L 747.00,344.00 L 747.00,343.00 L 748.00,342.00 L 748.00,342.00 L 748.00,341.00 L 748.00,340.00 L 748.00,339.00 L 748.00,338.00 L 749.00,337.00 L 749.00,337.00 L 749.00,336.00 L 749.00,335.00 L 749.00,334.00 L 749.00,333.00 L 749.00,332.00 L 750.00,331.00 L 750.00,331.00 L 750.00,330.00 L 750.00,329.00 L 750.00,328.00 L 750.00,327.00 L 750.00,326.00 L 751.00,325.00 L 751.00,325.00 L 751.00,324.00 L 751.00,323.00 L 751.00,322.00 L 751.00,321.00 L 751.00,320.00 L 752.00,319.00 L 752.00,319.00 L 752.00,318.00 L 752.00,317.00 L 752.00,316.00 L 752.00,315.00 L 752.00,314.00 L 752.00,313.00 L 753.00,312.00 L 753.00,312.00 L 753.00,311.00 L 753.00,310.00 L 753.00,309.00 L 753.00,308.00 L 754.00,307.00 L 754.00,307.00 L 754.00,306.00 L 754.00,305.00 L 754.00,304.00 L 754.00,303.00 L 754.00,302.00 L 754.00,301.00 L 755.00,300.00 L 755.00,300.00 L 755.00,299.00 L 755.00,298.00 L 755.00,297.00 L 755.00,296.00 L 756.00,295.00 L 756.00,295.00 L 756.00,294.00 L 756.00,293.00 L 756.00,292.00 L 757.00,291.00 L 757.00,291.00 L 757.00,290.00 L 757.00,289.00 L 757.00,288.00 L 757.00,287.00 L 757.00,286.00 L 758.00,285.00 L 758.00,285.00 L 758.00,284.00 L 758.00,283.00 L 758.00,282.00 L 758.00,281.00 L 758.00,280.00 L 759.00,279.00 L 759.00,279.00 L 759.00,278.00 L 759.00,277.00 L 759.00,276.00 L 759.00,275.00 L 760.00,274.00 L 760.00,274.00 L 760.00,273.00 L 760.00,272.00 L 760.00,271.00 L 760.00,270.00 L 761.00,269.00 L 761.00,269.00 L 761.00,268.00 L 761.00,267.00 L 761.00,266.00 L 761.00,265.00 L 762.00,264.00 L 762.00,264.00 L 762.00,263.00 L 762.00,262.00 L 762.00,261.00 L 762.00,260.00 L 763.00,259.00 L 763.00,259.00 L 763.00,258.00 L 763.00,257.00 L 763.00,256.00 L 763.00,255.00 L 763.00,254.00 L 764.00,253.00 L 764.00,253.00 L 764.00,252.00 L 764.00,251.00 L 764.00,250.00 L 764.00,249.00 L 765.00,248.00 L 765.00,248.00 L 765.00,247.00 L 765.00,246.00 L 765.00,245.00 L 765.00,244.00 L 766.00,243.00 L 766.00,243.00 L 766.00,242.00 L 766.00,241.00 L 766.00,240.00 L 766.00,239.00 L 767.00,238.00 L 768.00,238.00 L 769.00,239.00 L 769.00,240.00 L 769.00,241.00 L 769.00,242.00 L 769.00,243.00 L 769.00,243.00 L 770.00,244.00 L 770.00,245.00 L 770.00,246.00 L 770.00,247.00 L 770.00,248.00 L 770.00,248.00 L 771.00,249.00 L 771.00,250.00 L 771.00,251.00 L 771.00,252.00 L 771.00,253.00 L 771.00,254.00 L 771.00,254.00 L 772.00,255.00 L 772.00,256.00 L 772.00,257.00 L 772.00,258.00 L 772.00,258.00 L 773.00,259.00 L 773.00,260.00 L 773.00,261.00 L 773.00,262.00 L 773.00,263.00 L 773.00,263.00 L 774.00,264.00 L 774.00,265.00 L 774.00,266.00 L 774.00,267.00 L 774.00,268.00 L 774.00,269.00 L 774.00,269.00 L 775.00,270.00 L 775.00,271.00 L 775.00,272.00 L 775.00,273.00 L 775.00,274.00 L 775.00,274.00 L 776.00,275.00 L 776.00,276.00 L 776.00,277.00 L 776.00,278.00 L 776.00,279.00 L 776.00,280.00 L 776.00,280.00 L 777.00,281.00 L 777.00,282.00 L 777.00,283.00 L 777.00,284.00 L 777.00,285.00 L 777.00,286.00 L 777.00,286.00 L 778.00,287.00 L 778.00,288.00 L 778.00,289.00 L 778.00,290.00 L 778.00,291.00 L 778.00,291.00 L 779.00,292.00 L 779.00,293.00 L 779.00,294.00 L 779.00,295.00 L 779.00,296.00 L 779.00,297.00 L 779.00,297.00 L 780.00,298.00 L 780.00,299.00 L 780.00,300.00 L 780.00,301.00 L 780.00,302.00 L 780.00,303.00 L 780.00,304.00 L 780.00,304.00 L 781.00,305.00 L 781.00,306.00 L 781.00,307.00 L 781.00,308.00 L 781.00,309.00 L 781.00,310.00 L 781.00,310.00 L 782.00,311.00 L 782.00,312.00 L 782.00,313.00 L 782.00,314.00 L 782.00,315.00 L 782.00,315.00 L 783.00,316.00 L 783.00,317.00 L 783.00,318.00 L 783.00,319.00 L 783.00,320.00 L 783.00,321.00 L 783.00,322.00 L 783.00,322.00 L 784.00,323.00 L 784.00,324.00 L 784.00,325.00 L 784.00,326.00 L 784.00,327.00 L 784.00,327.00 L 785.00,328.00 L 785.00,329.00 L 785.00,330.00 L 785.00,331.00 L 785.00,331.00 L 786.00,332.00 L 786.00,333.00 L 786.00,334.00 L 786.00,335.00 L 786.00,336.00 L 786.00,336.00 L 787.00,337.00 L 787.00,338.00 L 787.00,339.00 L 787.00,340.00 L 787.00,341.00 L 787.00,341.00 L 788.00,342.00 L 788.00,343.00 L 788.00,344.00 L 788.00,345.00 L 788.00,346.00 L 788.00,346.00 L 789.00,347.00 L 789.00,348.00 L 789.00,349.00 L 789.00,350.00 L 789.00,351.00 L 789.00,351.00 L 790.00,352.00 L 790.00,353.00 L 790.00,354.00 L 790.00,355.00 L 790.00,356.00 L 790.00,357.00 L 790.00,357.00 L 791.00,358.00 L 791.00,359.00 L 791.00,360.00 L 791.00,361.00 L 791.00,362.00 L 791.00,363.00 L 791.00,363.00 L 792.00,364.00 L 792.00,365.00 L 792.00,366.00 L 792.00,367.00 L 792.00,368.00 L 792.00,368.00 L 793.00,369.00 L 793.00,370.00 L 793.00,371.00 L 793.00,372.00 L 793.00,373.00 L 793.00,373.00 L 794.00,374.00 L 794.00,375.00 L 794.00,376.00 L 794.00,377.00 L 794.00,378.00 L 794.00,379.00 L 794.00,379.00 L 795.00,380.00 L 795.00,381.00 L 795.00,382.00 L 795.00,383.00 L 795.00,384.00 L 795.00,385.00 L 795.00,385.00 L 796.00,386.00 L 796.00,387.00 L 796.00,388.00 L 796.00,389.00 L 796.00,390.00 L 796.00,391.00 L 796.00,391.00 L 797.00,392.00 L 797.00,393.00 L 797.00,394.00 L 797.00,395.00 L 797.00,396.00 L 797.00,397.00 L 797.00,397.00 L 798.00,398.00 L 798.00,399.00 L 798.00,400.00 L 798.00,401.00 L 798.00,402.00 L 798.00,403.00 L 798.00,404.00 L 798.00,404.00 L 799.00,405.00 L 799.00,406.00 L 799.00,407.00 L 799.00,408.00 L 799.00,409.00 L 799.00,409.00 L 800.00,410.00 L 800.00,411.00 L 800.00,412.00 L 800.00,413.00 L 800.00,414.00 L 800.00,415.00 L 800.00,415.00 L 801.00,416.00 L 801.00,417.00 L 801.00,418.00 L 801.00,419.00 L 801.00,420.00 L 801.00,420.00 L 801.00,420.00 L 802.00,419.00 L 802.00,419.00 L 803.00,418.00 L 804.00,418.00 L 804.00,418.00 L 805.00,417.00 L 806.00,417.00 L 806.00,417.00 L 807.00,416.00 L 807.00,416.00 L 808.00,415.00 L 808.00,415.00 L 809.00,414.00 L 810.00,414.00 L 810.00,414.00 L 811.00,413.00 L 811.00,413.00 L 812.00,412.00 L 813.00,412.00 L 813.00,412.00 L 814.00,411.00 L 814.00,411.00 L 815.00,410.00 L 816.00,410.00 L 816.00,410.00 L 817.00,409.00 L 817.00,409.00 L 818.00,408.00 L 819.00,408.00 L 819.00,408.00 L 820.00,407.00 L 820.00,407.00 L 821.00,406.00 L 822.00,406.00 L 822.00,406.00 L 823.00,405.00 L 823.00,405.00 L 824.00,404.00 L 825.00,404.00 L 825.00,404.00 L 826.00,403.00 L 827.00,403.00 L 827.00,403.00 L 828.00,402.00 L 828.00,402.00 L 829.00,401.00 L 830.00,401.00 L 830.00,401.00 L 831.00,400.00 L 831.00,400.00 L 832.00,399.00 L 832.00,399.00 L 833.00,398.00 L 833.00,398.00 L 834.00,397.00 L 835.00,397.00 L 835.00,397.00 L 836.00,396.00 L 836.00,396.00 L 837.00,395.00 L 838.00,395.00 L 838.00,395.00 L 839.00,394.00 L 839.00,394.00 L 840.00,393.00 L 841.00,393.00 L 841.00,393.00 L 842.00,392.00 L 842.00,392.00 L 843.00,391.00 L 844.00,391.00 L 844.00,391.00 L 845.00,390.00 L 845.00,390.00 L 846.00,389.00 L 847.00,389.00 L 847.00,389.00 L 848.00,388.00 L 848.00,388.00 L 849.00,387.00 L 850.00,387.00 L 850.00,387.00 L 851.00,386.00 L 851.00,386.00 L 852.00,385.00 L 853.00,385.00 L 853.00,385.00 L 854.00,384.00 L 855.00,384.00 L 855.00,384.00 L 856.00,383.00 L 856.00,383.00 L 857.00,382.00 L 857.00,382.00 L 858.00,381.00 L 859.00,381.00 L 859.00,381.00 L 860.00,380.00 L 860.00,380.00 L 861.00,379.00 L 862.00,379.00 L 862.00,379.00 L 863.00,378.00 L 863.00,378.00 L 864.00,377.00 L 865.00,377.00 L 865.00,377.00 L 866.00,376.00 L 866.00,376.00 L 867.00,375.00 L 868.00,375.00 L 868.00,375.00 L 869.00,374.00 L 869.00,374.00 L 870.00,373.00 L 871.00,373.00 L 871.00,373.00 L 872.00,372.00 L 872.00,372.00 L 873.00,371.00 L 873.00,371.00 L 874.00,370.00 L 875.00,370.00 L 875.00,370.00 L 876.00,369.00 L 877.00,369.00 L 877.00,369.00 L 878.00,368.00 L 878.00,368.00 L 879.00,367.00 L 880.00,367.00 L 880.00,367.00 L 881.00,366.00 L 881.00,366.00 L 882.00,365.00 L 882.00,365.00 L 883.00,364.00 L 884.00,364.00 L 884.00,364.00 L 885.00,363.00 L 885.00,363.00 L 886.00,362.00 L 887.00,362.00 L 887.00,362.00 L 888.00,361.00 L 889.00,361.00 L 889.00,361.00 L 890.00,360.00 L 890.00,360.00 L 891.00,359.00 L 891.00,359.00 L 892.00,358.00 L 893.00,358.00 L 894.00,359.00 L 894.00,360.00 L 893.00,361.00 L 893.00,361.00 L 892.00,362.00 L 892.00,362.00 L 892.00,363.00 L 891.00,364.00 L 891.00,364.00 L 890.00,365.00 L 890.00,365.00 L 890.00,366.00 L 889.00,367.00 L 889.00,367.00 L 888.00,368.00 L 888.00,368.00 L 888.00,369.00 L 887.00,370.00 L 887.00,370.00 L 886.00,371.00 L 886.00,371.00 L 885.00,372.00 L 885.00,372.00 L 885.00,373.00 L 884.00,374.00 L 884.00,374.00 L 883.00,375.00 L 883.00,375.00 L 883.00,376.00 L 882.00,377.00 L 882.00,377.00 L 881.00,378.00 L 881.00,378.00 L 880.00,379.00 L 880.00,379.00 L 880.00,380.00 L 879.00,381.00 L 879.00,381.00 L 878.00,382.00 L 878.00,382.00 L 878.00,383.00 L 877.00,384.00 L 877.00,384.00 L 876.00,385.00 L 876.00,385.00 L 876.00,386.00 L 875.00,387.00 L 875.00,387.00 L 874.00,388.00 L 874.00,388.00 L 873.00,389.00 L 873.00,389.00 L 873.00,390.00 L 872.00,391.00 L 872.00,391.00 L 871.00,392.00 L 871.00,392.00 L 870.00,393.00 L 870.00,393.00 L 870.00,394.00 L 869.00,395.00 L 869.00,395.00 L 868.00,396.00 L 868.00,396.00 L 868.00,397.00 L 867.00,398.00 L 867.00,398.00 L 866.00,399.00 L 866.00,399.00 L 866.00,400.00 L 865.00,401.00 L 865.00,401.00 L 864.00,402.00 L 864.00,402.00 L 863.00,403.00 L 863.00,403.00 L 863.00,404.00 L 862.00,405.00 L 862.00,405.00 L 861.00,406.00 L 861.00,406.00 L 861.00,407.00 L 860.00,408.00 L 860.00,408.00 L 859.00,409.00 L 859.00,409.00 L 858.00,410.00 L 858.00,410.00 L 858.00,411.00 L 857.00,412.00 L 857.00,412.00 L 856.00,413.00 L 856.00,413.00 L 855.00,414.00 L 855.00,414.00 L 854.00,415.00 L 854.00,415.00 L 854.00,416.00 L 853.00,417.00 L 853.00,417.00 L 852.00,418.00 L 852.00,418.00 L 852.00,419.00 L 851.00,420.00 L 851.00,420.00 L 850.00,421.00 L 850.00,421.00 L 850.00,422.00 L 849.00,423.00 L 849.00,423.00 L 848.00,424.00 L 848.00,424.00 L 848.00,425.00 L 847.00,426.00 L 847.00,426.00 L 846.00,427.00 L 846.00,427.00 L 846.00,428.00 L 845.00,429.00 L 845.00,429.00 L 844.00,430.00 L 844.00,430.00 L 844.00,431.00 L 843.00,432.00 L 843.00,432.00 L 842.00,433.00 L 842.00,433.00 L 841.00,434.00 L 841.00,434.00 L 841.00,435.00 L 840.00,436.00 L 840.00,436.00 L 839.00,437.00 L 839.00,437.00 L 838.00,438.00 L 838.00,438.00 L 838.00,439.00 L 837.00,440.00 L 837.00,440.00 L 837.00,441.00 L 836.00,442.00 L 836.00,442.00 L 836.00,443.00 L 835.00,444.00 L 835.00,444.00 L 834.00,445.00 L 834.00,445.00 L 833.00,446.00 L 833.00,446.00 L 833.00,446.00 L 834.00,446.00 L 835.00,446.00 L 836.00,446.00 L 837.00,446.00 L 838.00,446.00 L 839.00,447.00 L 839.00,447.00 L 840.00,447.00 L 841.00,447.00 L 842.00,448.00 L 842.00,448.00 L 843.00,448.00 L 844.00,448.00 L 845.00,448.00 L 846.00,448.00 L 847.00,448.00 L 848.00,449.00 L 848.00,449.00 L 849.00,449.00 L 850.00,449.00 L 851.00,449.00 L 852.00,449.00 L 853.00,449.00 L 854.00,450.00 L 854.00,450.00 L 855.00,450.00 L 856.00,450.00 L 857.00,450.00 L 858.00,451.00 L 858.00,451.00 L 859.00,451.00 L 860.00,451.00 L 861.00,451.00 L 862.00,451.00 L 863.00,451.00 L 864.00,452.00 L 864.00,452.00 L 865.00,452.00 L 866.00,452.00 L 867.00,452.00 L 868.00,452.00 L 869.00,453.00 L 869.00,453.00 L 870.00,453.00 L 871.00,453.00 L 872.00,453.00 L 873.00,453.00 L 874.00,453.00 L 875.00,454.00 L 875.00,454.00 L 876.00,454.00 L 877.00,454.00 L 878.00,454.00 L 879.00,455.00 L 879.00,455.00 L 880.00,455.00 L 881.00,455.00 L 882.00,455.00 L 883.00,455.00 L 884.00,456.00 L 884.00,456.00 L 885.00,456.00 L 886.00,456.00 L 887.00,456.00 L 888.00,456.00 L 889.00,457.00 L 889.00,457.00 L 890.00,457.00 L 891.00,457.00 L 892.00,457.00 L 893.00,457.00 L 894.00,457.00 L 895.00,458.00 L 895.00,458.00 L 896.00,458.00 L 897.00,458.00 L 898.00,458.00 L 899.00,458.00 L 900.00,458.00 L 901.00,459.00 L 901.00,459.00 L 902.00,459.00 L 903.00,459.00 L 904.00,459.00 L 905.00,459.00 L 906.00,460.00 L 906.00,460.00 L 907.00,460.00 L 908.00,460.00 L 909.00,460.00 L 910.00,460.00 L 911.00,460.00 L 912.00,460.00 L 913.00,460.00 L 914.00,461.00 L 914.00,461.00 L 915.00,461.00 L 916.00,461.00 L 917.00,461.00 L 918.00,462.00 L 918.00,462.00 L 919.00,462.00 L 920.00,462.00 L 921.00,462.00 L 922.00,462.00 L 923.00,463.00 L 923.00,463.00 L 924.00,463.00 L 925.00,463.00 L 926.00,463.00 L 927.00,463.00 L 928.00,463.00 L 929.00,464.00 L 929.00,464.00 L 930.00,464.00 L 931.00,464.00 L 932.00,464.00 L 933.00,464.00 L 934.00,465.00 L 934.00,465.00 L 935.00,465.00 L 936.00,465.00 L 937.00,465.00 L 938.00,465.00 L 939.00,465.00 L 940.00,466.00 L 940.00,466.00 L 941.00,466.00 L 942.00,466.00 L 943.00,466.00 L 944.00,467.00 L 944.00,467.00 L 945.00,467.00 L 946.00,467.00 L 947.00,467.00 L 948.00,467.00 L 949.00,468.00 L 949.00,468.00 L 950.00,468.00 L 951.00,468.00 L 952.00,468.00 L 953.00,468.00 L 954.00,468.00 L 955.00,468.00 L 956.00,469.00 L 956.00,469.00 L 957.00,469.00 L 958.00,469.00 L 959.00,469.00 L 960.00,469.00 L 961.00,470.00 L 961.00,470.00 L 962.00,470.00 L 963.00,470.00 L 964.00,470.00 L 965.00,471.00 L 965.00,471.00 L 966.00,471.00 L 967.00,471.00 L 968.00,471.00 L 969.00,471.00 L 970.00,472.00 L 970.00,472.00 L 971.00,472.00 L 972.00,472.00 L 973.00,472.00 L 974.00,472.00 L 975.00,472.00 L 976.00,473.00 L 976.00,473.00 L 977.00,473.00 L 978.00,473.00 L 979.00,473.00 L 980.00,473.00 L 981.00,474.00 L 981.00,474.00 L 982.00,474.00 L 983.00,474.00 L 984.00,474.00 L 985.00,474.00 L 986.00,475.00 L 986.00,475.00 L 987.00,475.00 L 988.00,475.00 L 989.00,475.00 L 990.00,475.00 L 991.00,475.00 L 992.00,476.00 L 992.00,476.00 L 993.00,476.00 L 994.00,476.00 L 995.00,476.00 L 996.00,476.00 L 997.00,477.00 L 997.00,477.00 L 998.00,477.00 L 999.00,477.00 L 1000.00,477.00 L 1001.00,477.00 L 1002.00,478.00 L 1002.00,478.00 L 1003.00,478.00 L 1004.00,478.00 L 1005.00,478.00 L 1006.00,478.00 L 1007.00,478.00 L 1008.00,478.00 L 1009.00,479.00 L 1009.00,479.00 L 1010.00,479.00 L 1011.00,479.00 L 1012.00,479.00 L 1013.00,479.00 L 1014.00,479.00 L 1015.00,480.00 L 1015.00,480.00 L 1016.00,481.00 L 1016.00,482.00 L 1015.00,483.00 L 1014.00,483.00 L 1013.00,483.00 L 1013.00,483.00 L 1012.00,484.00 L 1011.00,484.00 L 1010.00,484.00 L 1009.00,484.00 L 1008.00,484.00 L 1007.00,484.00 L 1007.00,484.00 L 1006.00,485.00 L 1005.00,485.00 L 1004.00,485.00 L 1003.00,485.00 L 1002.00,485.00 L 1002.00,485.00 L 1001.00,486.00 L 1000.00,486.00 L 999.00,486.00 L 998.00,486.00 L 997.00,486.00 L 996.00,486.00 L 996.00,486.00 L 995.00,487.00 L 994.00,487.00 L 993.00,487.00 L 992.00,487.00 L 991.00,487.00 L 990.00,487.00 L 990.00,487.00 L 989.00,488.00 L 988.00,488.00 L 987.00,488.00 L 986.00,488.00 L 986.00,488.00 L 985.00,489.00 L 984.00,489.00 L 983.00,489.00 L 982.00,489.00 L 981.00,489.00 L 980.00,489.00 L 980.00,489.00 L 979.00,490.00 L 978.00,490.00 L 977.00,490.00 L 976.00,490.00 L 975.00,490.00 L 974.00,490.00 L 974.00,490.00 L 973.00,491.00 L 972.00,491.00 L 971.00,491.00 L 970.00,491.00 L 969.00,491.00 L 968.00,491.00 L 968.00,491.00 L 967.00,492.00 L 966.00,492.00 L 965.00,492.00 L 964.00,492.00 L 963.00,492.00 L 962.00,492.00 L 962.00,492.00 L 961.00,493.00 L 960.00,493.00 L 959.00,493.00 L 958.00,493.00 L 957.00,493.00 L 956.00,493.00 L 956.00,493.00 L 955.00,494.00 L 954.00,494.00 L 953.00,494.00 L 952.00,494.00 L 951.00,494.00 L 951.00,494.00 L 950.00,495.00 L 949.00,495.00 L 948.00,495.00 L 947.00,495.00 L 946.00,495.00 L 946.00,495.00 L 945.00,496.00 L 944.00,496.00 L 943.00,496.00 L 942.00,496.00 L 941.00,496.00 L 940.00,496.00 L 940.00,496.00 L 939.00,497.00 L 938.00,497.00 L 937.00,497.00 L 936.00,497.00 L 935.00,497.00 L 935.00,497.00 L 934.00,498.00 L 933.00,498.00 L 932.00,498.00 L 931.00,498.00 L 930.00,498.00 L 930.00,498.00 L 929.00,499.00 L 928.00,499.00 L 927.00,499.00 L 926.00,499.00 L 925.00,499.00 L 925.00,499.00 L 924.00,500.00 L 923.00,500.00 L 922.00,500.00 L 921.00,500.00 L 921.00,500.00 L 920.00,501.00 L 919.00,501.00 L 918.00,501.00 L 917.00,501.00 L 916.00,501.00 L 915.00,501.00 L 915.00,501.00 L 914.00,502.00 L 913.00,502.00 L 912.00,502.00 L 911.00,502.00 L 910.00,502.00 L 909.00,502.00 L 909.00,502.00 L 908.00,503.00 L 907.00,503.00 L 906.00,503.00 L 905.00,503.00 L 905.00,503.00 L 904.00,504.00 L 903.00,504.00 L 902.00,504.00 L 901.00,504.00 L 900.00,504.00 L 899.00,504.00 L 899.00,504.00 L 898.00,505.00 L 897.00,505.00 L 896.00,505.00 L 895.00,505.00 L 894.00,505.00 L 894.00,505.00 L 893.00,506.00 L 892.00,506.00 L 891.00,506.00 L 890.00,506.00 L 889.00,506.00 L 889.00,506.00 L 888.00,507.00 L 887.00,507.00 L 886.00,507.00 L 885.00,507.00 L 884.00,507.00 L 883.00,507.00 L 882.00,507.00 L 882.00,507.00 L 881.00,508.00 L 880.00,508.00 L 879.00,508.00 L 878.00,508.00 L 877.00,508.00 L 877.00,508.00 L 876.00,509.00 L 875.00,509.00 L 874.00,509.00 L 873.00,509.00 L 872.00,509.00 L 871.00,509.00 L 870.00,509.00 L 870.00,509.00 L 869.00,510.00 L 868.00,510.00 L 867.00,510.00 L 866.00,510.00 L 865.00,510.00 L 864.00,510.00 L 864.00,510.00 L 863.00,511.00 L 862.00,511.00 L 861.00,511.00 L 860.00,511.00 L 859.00,511.00 L 859.00,511.00 L 858.00,512.00 L 857.00,512.00 L 856.00,512.00 L 855.00,512.00 L 854.00,512.00 L 854.00,512.00 L 853.00,513.00 L 852.00,513.00 L 851.00,513.00 L 850.00,513.00 L 849.00,513.00 L 848.00,513.00 L 848.00,513.00 L 847.00,514.00 L 846.00,514.00 L 845.00,514.00 L 844.00,514.00 L 843.00,514.00 L 843.00,514.00 L 842.00,515.00 L 841.00,515.00 L 840.00,515.00 L 839.00,515.00 L 838.00,515.00 L 838.00,515.00 L 837.00,516.00 L 836.00,516.00 L 835.00,516.00 L 834.00,516.00 L 833.00,516.00 L 833.00,516.00 L 833.00,517.00 L 833.00,517.00 L 834.00,518.00 L 834.00,518.00 L 835.00,519.00 L 835.00,519.00 L 836.00,520.00 L 836.00,521.00 L 836.00,521.00 L 837.00,522.00 L 837.00,522.00 L 838.00,523.00 L 838.00,524.00 L 838.00,524.00 L 839.00,525.00 L 839.00,525.00 L 840.00,526.00 L 840.00,527.00 L 840.00,527.00 L 841.00,528.00 L 841.00,528.00 L 842.00,529.00 L 842.00,530.00 L 842.00,530.00 L 843.00,531.00 L 843.00,531.00 L 844.00,532.00 L 844.00,532.00 L 845.00,533.00 L 845.00,533.00 L 846.00,534.00 L 846.00,535.00 L 846.00,535.00 L 847.00,535.00 L 848.00,536.00 L 848.00,537.00 L 848.00,538.00 L 848.00,538.00 L 849.00,539.00 L 849.00,539.00 L 850.00,540.00 L 850.00,540.00 L 851.00,541.00 L 851.00,542.00 L 851.00,542.00 L 852.00,543.00 L 852.00,544.00 L 852.00,544.00 L 853.00,545.00 L 853.00,545.00 L 854.00,546.00 L 854.00,547.00 L 854.00,547.00 L 855.00,548.00 L 855.00,548.00 L 856.00,549.00 L 856.00,549.00 L 857.00,550.00 L 857.00,551.00 L 857.00,551.00 L 858.00,552.00 L 858.00,552.00 L 859.00,553.00 L 859.00,553.00 L 860.00,554.00 L 860.00,555.00 L 860.00,555.00 L 861.00,556.00 L 861.00,556.00 L 862.00,557.00 L 862.00,557.00 L 863.00,558.00 L 863.00,559.00 L 863.00,559.00 L 864.00,560.00 L 864.00,560.00 L 865.00,561.00 L 865.00,562.00 L 865.00,562.00 L 866.00,563.00 L 866.00,563.00 L 867.00,564.00 L 867.00,565.00 L 867.00,565.00 L 868.00,566.00 L 868.00,566.00 L 869.00,567.00 L 869.00,568.00 L 869.00,568.00 L 870.00,569.00 L 870.00,570.00 L 870.00,570.00 L 871.00,571.00 L 871.00,571.00 L 872.00,572.00 L 872.00,572.00 L 873.00,573.00 L 873.00,574.00 L 873.00,574.00 L 874.00,575.00 L 874.00,575.00 L 875.00,576.00 L 875.00,577.00 L 875.00,577.00 L 876.00,578.00 L 876.00,578.00 L 877.00,579.00 L 877.00,579.00 L 878.00,580.00 L 878.00,581.00 L 878.00,581.00 L 879.00,582.00 L 879.00,582.00 L 880.00,583.00 L 880.00,584.00 L 880.00,584.00 L 881.00,585.00 L 881.00,585.00 L 882.00,586.00 L 882.00,586.00 L 883.00,587.00 L 883.00,588.00 L 883.00,588.00 L 884.00,589.00 L 884.00,589.00 L 885.00,590.00 L 885.00,591.00 L 885.00,591.00 L 886.00,592.00 L 886.00,592.00 L 887.00,593.00 L 887.00,593.00 L 888.00,594.00 L 888.00,595.00 L 888.00,595.00 L 889.00,596.00 L 889.00,596.00 L 890.00,597.00 L 890.00,598.00 L 890.00,598.00 L 891.00,599.00 L 891.00,599.00 L 892.00,600.00 L 892.00,601.00 L 891.00,602.00 L 890.00,602.00 L 889.00,601.00 L 889.00,601.00 L 888.00,601.00 L 887.00,600.00 L 887.00,600.00 L 886.00,599.00 L 886.00,599.00 L 885.00,598.00 L 885.00,598.00 L 884.00,598.00 L 883.00,597.00 L 883.00,597.00 L 882.00,596.00 L 882.00,596.00 L 881.00,596.00 L 880.00,595.00 L 880.00,595.00 L 879.00,595.00 L 878.00,594.00 L 878.00,594.00 L 877.00,593.00 L 877.00,593.00 L 876.00,592.00 L 876.00,592.00 L 875.00,592.00 L 874.00,591.00 L 874.00,591.00 L 873.00,590.00 L 873.00,590.00 L 872.00,590.00 L 871.00,589.00 L 871.00,589.00 L 870.00,589.00 L 869.00,588.00 L 869.00,588.00 L 868.00,587.00 L 868.00,587.00 L 867.00,587.00 L 866.00,586.00 L 866.00,586.00 L 865.00,585.00 L 865.00,585.00 L 864.00,584.00 L 864.00,584.00 L 863.00,583.00 L 863.00,583.00 L 862.00,583.00 L 861.00,582.00 L 861.00,582.00 L 860.00,581.00 L 860.00,581.00 L 859.00,581.00 L 858.00,580.00 L 858.00,580.00 L 857.00,579.00 L 857.00,579.00 L 856.00,579.00 L 855.00,578.00 L 855.00,578.00 L 854.00,577.00 L 854.00,577.00 L 853.00,577.00 L 852.00,576.00 L 852.00,576.00 L 851.00,575.00 L 851.00,575.00 L 850.00,575.00 L 849.00,574.00 L 849.00,574.00 L 848.00,573.00 L 848.00,573.00 L 847.00,573.00 L 846.00,572.00 L 846.00,572.00 L 845.00,571.00 L 845.00,571.00 L 844.00,571.00 L 843.00,570.00 L 843.00,570.00 L 842.00,569.00 L 842.00,569.00 L 841.00,568.00 L 841.00,568.00 L 840.00,568.00 L 839.00,567.00 L 839.00,567.00 L 838.00,566.00 L 838.00,566.00 L 837.00,566.00 L 836.00,565.00 L 836.00,565.00 L 835.00,564.00 L 835.00,564.00 L 834.00,564.00 L 833.00,563.00 L 833.00,563.00 L 832.00,563.00 L 831.00,562.00 L 831.00,562.00 L 830.00,561.00 L 830.00,561.00 L 829.00,561.00 L 828.00,560.00 L 828.00,560.00 L 827.00,559.00 L 827.00,559.00 L 826.00,559.00 L 825.00,558.00 L 825.00,558.00 L 824.00,557.00 L 824.00,557.00 L 823.00,557.00 L 822.00,556.00 L 822.00,556.00 L 821.00,555.00 L 821.00,555.00 L 820.00,555.00 L 819.00,554.00 L 819.00,554.00 L 818.00,553.00 L 818.00,553.00 L 817.00,552.00 L 817.00,552.00 L 816.00,552.00 L 815.00,551.00 L 815.00,551.00 L 814.00,550.00 L 814.00,550.00 L 813.00,550.00 L 812.00,549.00 L 812.00,549.00 L 811.00,548.00 L 811.00,548.00 L 810.00,548.00 L 809.00,547.00 L 809.00,547.00 L 808.00,546.00 L 808.00,546.00 L 807.00,546.00 L 806.00,545.00 L 806.00,545.00 L 805.00,545.00 L 804.00,544.00 L 804.00,544.00 L 803.00,544.00 L 802.00,543.00 L 802.00,543.00 L 801.00,542.00 L 801.00,542.00 L 801.00,542.00 L 801.00,543.00 L 801.00,544.00 L 801.00,545.00 L 801.00,546.00 L 801.00,547.00 L 801.00,548.00 L 800.00,549.00 L 800.00,549.00 L 800.00,550.00 L 800.00,551.00 L 800.00,552.00 L 800.00,553.00 L 800.00,554.00 L 800.00,555.00 L 800.00,556.00 L 799.00,557.00 L 799.00,557.00 L 799.00,558.00 L 799.00,559.00 L 799.00,560.00 L 799.00,561.00 L 799.00,562.00 L 799.00,563.00 L 798.00,564.00 L 798.00,564.00 L 798.00,565.00 L 798.00,566.00 L 798.00,567.00 L 798.00,568.00 L 798.00,569.00 L 798.00,570.00 L 798.00,571.00 L 797.00,572.00 L 797.00,572.00 L 797.00,573.00 L 797.00,574.00 L 797.00,575.00 L 797.00,576.00 L 797.00,577.00 L 797.00,578.00 L 797.00,579.00 L 797.00,580.00 L 796.00,581.00 L 796.00,581.00 L 796.00,582.00 L 796.00,583.00 L 796.00,584.00 L 796.00,585.00 L 796.00,586.00 L 796.00,587.00 L 795.00,588.00 L 795.00,588.00 L 795.00,589.00 L 795.00,590.00 L 795.00,591.00 L 795.00,592.00 L 795.00,593.00 L 795.00,594.00 L 795.00,595.00 L 794.00,596.00 L 794.00,596.00 L 794.00,597.00 L 794.00,598.00 L 794.00,599.00 L 794.00,600.00 L 794.00,601.00 L 794.00,602.00 L 793.00,603.00 L 793.00,603.00 L 793.00,604.00 L 793.00,605.00 L 793.00,606.00 L 793.00,607.00 L 793.00,608.00 L 792.00,609.00 L 792.00,609.00 L 792.00,610.00 L 792.00,611.00 L 792.00,612.00 L 792.00,613.00 L 792.00,614.00 L 792.00,615.00 L 791.00,616.00 L 791.00,616.00 L 791.00,617.00 L 791.00,618.00 L 791.00,619.00 L 791.00,620.00 L 791.00,621.00 L 791.00,622.00 L 790.00,623.00 L 790.00,623.00 L 790.00,624.00 L 790.00,625.00 L 790.00,626.00 L 790.00,627.00 L 790.00,628.00 L 790.00,629.00 L 789.00,630.00 L 789.00,630.00 L 789.00,631.00 L 789.00,632.00 L 789.00,633.00 L 789.00,634.00 L 789.00,635.00 L 788.00,636.00 L 788.00,636.00 L 788.00,637.00 L 788.00,638.00 L 788.00,639.00 L 788.00,640.00 L 788.00,641.00 L 788.00,642.00 L 787.00,643.00 L 787.00,643.00 L 787.00,644.00 L 787.00,645.00 L 787.00,646.00 L 787.00,647.00 L 787.00,648.00 L 787.00,649.00 L 786.00,650.00 L 786.00,650.00 L 786.00,651.00 L 786.00,652.00 L 786.00,653.00 L 786.00,654.00 L 786.00,655.00 L 785.00,656.00 L 785.00,656.00 L 785.00,657.00 L 785.00,658.00 L 785.00,659.00 L 785.00,660.00 L 785.00,661.00 L 784.00,662.00 L 784.00,662.00 L 784.00,663.00 L 784.00,664.00 L 784.00,665.00 L 784.00,666.00 L 784.00,667.00 L 784.00,668.00 L 784.00,669.00 L 783.00,670.00 L 783.00,670.00 L 783.00,671.00 L 783.00,672.00 L 783.00,673.00 L 783.00,674.00 L 783.00,675.00 L 783.00,676.00 L 783.00,677.00 L 782.00,678.00 L 782.00,678.00 L 782.00,679.00 L 782.00,680.00 L 782.00,681.00 L 782.00,682.00 L 782.00,683.00 L 782.00,684.00 L 781.00,685.00 L 781.00,685.00 L 781.00,686.00 L 781.00,687.00 L 781.00,688.00 L 781.00,689.00 L 781.00,690.00 L 781.00,691.00 L 781.00,692.00 L 781.00,693.00 L 780.00,694.00 L 780.00,694.00 L 780.00,695.00 L 780.00,696.00 L 780.00,697.00 L 780.00,698.00 L 780.00,699.00 L 780.00,700.00 L 779.00,701.00 L 779.00,701.00 L 779.00,702.00 L 779.00,703.00 L 779.00,704.00 L 779.00,705.00 L 779.00,706.00 L 779.00,707.00 L 778.00,708.00 L 778.00,708.00 L 778.00,709.00 L 778.00,710.00 L 778.00,711.00 L 778.00,712.00 L 778.00,713.00 L 778.00,714.00 L 778.00,715.00 L 778.00,716.00 L 777.00,717.00 L 777.00,717.00 L 777.00,718.00 L 777.00,719.00 L 777.00,720.00 L 777.00,721.00 L 777.00,722.00 L 777.00,723.00 L 777.00,724.00 L 776.00,725.00 L 776.00,725.00 L 776.00,726.00 L 776.00,727.00 L 776.00,728.00 L 776.00,729.00 L 776.00,730.00 L 776.00,731.00 L 775.00,732.00 L 775.00,732.00 L 775.00,733.00 L 775.00,734.00 L 775.00,735.00 L 775.00,736.00 L 775.00,737.00 L 774.00,738.00 L 774.00,738.00 L 774.00,739.00 L 774.00,740.00 L 774.00,741.00 L 774.00,742.00 L 774.00,743.00 L 774.00,744.00 L 774.00,745.00 L 773.00,746.00 L 773.00,746.00 L 773.00,747.00 L 773.00,748.00 L 773.00,749.00 L 773.00,750.00 L 773.00,751.00 L 772.00,752.00 L 772.00,752.00 L 772.00,753.00 L 772.00,754.00 L 772.00,755.00 L 772.00,756.00 L 772.00,757.00 L 772.00,758.00 L 771.00,759.00 L 771.00,759.00 L 771.00,760.00 L 771.00,761.00 L 771.00,762.00 L 771.00,763.00 L 771.00,764.00 L 771.00,765.00 L 770.00,766.00 L 770.00,766.00 L 770.00,767.00 L 770.00,768.00 L 770.00,769.00 L 770.00,770.00 L 770.00,771.00 L 770.00,772.00 L 770.00,773.00 L 769.00,774.00 L 769.00,774.00 L 769.00,775.00 L 769.00,776.00 L 769.00,777.00 L 769.00,778.00 L 769.00,779.00 L 769.00,780.00 L 769.00,781.00 L 768.00,782.00 Z" fill="#9A9A3A" stroke="none" /><path d="M 794.00,374.00 L 793.00,373.00 L 794.00,372.00 L 795.00,373.00 L 794.00,374.00 Z" fill="#9A9A3A" stroke="none" /></svg>