<?xml version="1.0" encoding="utf-8" ?>
<svg baseProfile="full" height="1024px" version="1.1" width="1536px" xmlns="http://www.w3.org/2000/svg" xmlns:ev="http://www.w3.org/2001/xml-events" xmlns:xlink="http://www.w3.org/1999/xlink"><defs /><path d="M 768.00,755.90 L 767.00,755.90 L 766.00,755.00 L 766.00,754.10 L 766.00,753.20 L 766.00,752.30 L 766.00,751.40 L 766.00,750.50 L 766.00,750.50 L 765.00,749.60 L 765.00,748.70 L 765.00,747.80 L 765.00,746.90 L 765.00,746.00 L 765.00,745.10 L 765.00,744.20 L 765.00,743.30 L 765.00,742.40 L 765.00,742.40 L 764.00,741.50 L 764.00,740.60 L 764.00,739.70 L 764.00,738.80 L 764.00,737.90 L 764.00,737.00 L 764.00,736.10 L 764.00,735.20 L 764.00,735.20 L 763.00,734.30 L 763.00,733.40 L 763.00,732.50 L 763.00,731.60 L 763.00,730.70 L 763.00,729.80 L 763.00,728.90 L 763.00,728.90 L 762.00,728.00 L 762.00,727.10 L 762.00,726.20 L 762.00,725.30 L 762.00,724.40 L 762.00,723.50 L 762.00,722.60 L 762.00,721.70 L 762.00,721.70 L 761.00,720.80 L 761.00,719.90 L 761.00,719.00 L 761.00,718.10 L 761.00,717.20 L 761.00,716.30 L 761.00,716.30 L 760.00,715.40 L 760.00,714.50 L 760.00,713.60 L 760.00,712.70 L 760.00,711.80 L 760.00,710.90 L 760.00,710.00 L 760.00,710.00 L 759.00,709.10 L 759.00,708.20 L 759.00,707.30 L 759.00,706.40 L 759.00,705.50 L 759.00,704.60 L 759.00,704.60 L 758.00,703.70 L 758.00,702.80 L 758.00,701.90 L 758.00,701.00 L 758.00,700.10 L 758.00,699.20 L 758.00,698.30 L 758.00,698.30 L 757.00,697.40 L 757.00,696.50 L 757.00,695.60 L 757.00,694.70 L 757.00,693.80 L 757.00,692.90 L 757.00,692.90 L 756.00,692.00 L 756.00,691.10 L 756.00,690.20 L 756.00,689.30 L 756.00,688.40 L 756.00,687.50 L 756.00,687.50 L 755.00,686.60 L 755.00,685.70 L 755.00,684.80 L 755.00,683.90 L 755.00,683.00 L 755.00,682.10 L 755.00,681.20 L 755.00,680.30 L 755.00,679.40 L 755.00,679.40 L 754.00,678.50 L 754.00,677.60 L 754.00,676.70 L 754.00,675.80 L 754.00,674.90 L 754.00,674.00 L 754.00,673.10 L 754.00,672.20 L 754.00,672.20 L 753.00,671.30 L 753.00,670.40 L 753.00,669.50 L 753.00,668.60 L 753.00,667.70 L 753.00,666.80 L 753.00,665.90 L 753.00,665.90 L 752.00,665.00 L 752.00,664.10 L 752.00,663.20 L 752.00,662.30 L 752.00,661.40 L 752.00,660.50 L 752.00,659.60 L 752.00,659.60 L 751.00,658.70 L 751.00,657.80 L 751.00,656.90 L 751.00,656.00 L 751.00,655.10 L 751.00,654.20 L 751.00,653.30 L 751.00,652.40 L 751.00,651.50 L 751.00,651.50 L 750.00,650.60 L 750.00,649.70 L 750.00,648.80 L 750.00,647.90 L 750.00,647.00 L 750.00,646.10 L 750.00,645.20 L 750.00,644.30 L 750.00,644.30 L 749.00,643.40 L 749.00,642.50 L 749.00,641.60 L 749.00,640.70 L 749.00,639.80 L 749.00,638.90 L 749.00,638.00 L 749.00,638.00 L 748.00,637.10 L 748.00,636.20 L 748.00,635.30 L 748.00,634.40 L 748.00,633.50 L 748.00,632.60 L 748.00,632.60 L 747.00,631.70 L 747.00,630.80 L 747.00,629.90 L 747.00,629.00 L 747.00,628.10 L 747.00,627.20 L 747.00,626.30 L 747.00,625.40 L 747.00,624.50 L 747.00,623.60 L 747.00,623.60 L 746.00,622.70 L 746.00,621.80 L 746.00,620.90 L 746.00,620.00 L 746.00,619.10 L 746.00,618.20 L 746.00,617.30 L 746.00,617.30 L 745.00,616.40 L 745.00,615.50 L 745.00,614.60 L 745.00,613.70 L 745.00,612.80 L 745.00,611.90 L 745.00,611.00 L 745.00,611.00 L 744.00,610.10 L 744.00,609.20 L 744.00,608.30 L 744.00,607.40 L 744.00,606.50 L 744.00,605.60 L 744.00,605.60 L 743.00,604.70 L 743.00,603.80 L 743.00,602.90 L 743.00,602.00 L 743.00,601.10 L 743.00,600.20 L 743.00,599.30 L 743.00,599.30 L 742.00,598.40 L 742.00,597.50 L 742.00,596.60 L 742.00,595.70 L 742.00,594.80 L 742.00,593.90 L 742.00,593.90 L 741.00,593.00 L 741.00,592.10 L 741.00,591.20 L 741.00,590.30 L 741.00,589.40 L 741.00,588.50 L 741.00,587.60 L 741.00,587.60 L 740.00,586.70 L 740.00,585.80 L 740.00,584.90 L 740.00,584.00 L 740.00,583.10 L 740.00,582.20 L 740.00,582.20 L 739.00,581.30 L 739.00,580.40 L 739.00,579.50 L 739.00,578.60 L 739.00,577.70 L 739.00,576.80 L 739.00,576.80 L 738.00,575.90 L 738.00,575.00 L 738.00,574.10 L 738.00,573.20 L 738.00,572.30 L 738.00,571.40 L 738.00,570.50 L 738.00,569.60 L 738.00,569.60 L 737.00,568.70 L 737.00,567.80 L 737.00,566.90 L 737.00,566.00 L 737.00,565.10 L 737.00,564.20 L 737.00,563.30 L 737.00,563.30 L 736.00,562.40 L 736.00,561.50 L 736.00,560.60 L 736.00,559.70 L 736.00,558.80 L 736.00,557.90 L 736.00,557.00 L 736.00,557.00 L 735.00,556.10 L 735.00,555.20 L 735.00,554.30 L 735.00,553.40 L 735.00,552.50 L 735.00,551.60 L 735.00,550.70 L 735.00,549.80 L 735.00,549.80 L 734.00,548.90 L 734.00,548.00 L 734.00,547.10 L 734.00,546.20 L 734.00,545.30 L 734.00,544.40 L 734.00,544.40 L 733.00,543.50 L 736.50,546.00 L 736.50,545.00 L 736.50,544.00 L 736.50,543.00 L 736.50,543.00 L 736.50,543.00 L 735.60,544.00 L 734.70,544.00 L 734.70,544.00 L 733.80,545.00 L 733.80,545.00 L 732.90,546.00 L 732.00,546.00 L 732.00,546.00 L 731.10,547.00 L 730.20,547.00 L 730.20,547.00 L 729.30,548.00 L 729.30,548.00 L 728.40,549.00 L 727.50,549.00 L 727.50,549.00 L 726.60,550.00 L 726.60,550.00 L 725.70,551.00 L 724.80,551.00 L 724.80,551.00 L 723.90,552.00 L 723.90,552.00 L 723.00,553.00 L 723.00,553.00 L 722.10,554.00 L 721.20,554.00 L 721.20,554.00 L 720.30,555.00 L 719.40,555.00 L 719.40,555.00 L 718.50,556.00 L 718.50,556.00 L 717.60,557.00 L 716.70,557.00 L 716.70,557.00 L 715.80,558.00 L 715.80,558.00 L 714.90,559.00 L 714.00,559.00 L 714.00,559.00 L 713.10,560.00 L 713.10,560.00 L 712.20,561.00 L 712.20,561.00 L 711.30,562.00 L 710.40,562.00 L 710.40,562.00 L 709.50,563.00 L 708.60,563.00 L 708.60,563.00 L 707.70,564.00 L 707.70,564.00 L 706.80,565.00 L 705.90,565.00 L 705.90,565.00 L 705.00,566.00 L 705.00,566.00 L 704.10,567.00 L 703.20,567.00 L 703.20,567.00 L 702.30,568.00 L 702.30,568.00 L 701.40,569.00 L 700.50,569.00 L 700.50,569.00 L 699.60,570.00 L 699.60,570.00 L 698.70,571.00 L 697.80,571.00 L 697.80,571.00 L 696.90,572.00 L 696.90,572.00 L 696.00,573.00 L 695.10,573.00 L 695.10,573.00 L 694.20,574.00 L 694.20,574.00 L 693.30,575.00 L 692.40,575.00 L 692.40,575.00 L 691.50,576.00 L 691.50,576.00 L 690.60,577.00 L 689.70,577.00 L 689.70,577.00 L 688.80,578.00 L 688.80,578.00 L 687.90,579.00 L 687.00,579.00 L 687.00,579.00 L 686.10,580.00 L 686.10,580.00 L 685.20,581.00 L 684.30,581.00 L 684.30,581.00 L 683.40,582.00 L 683.40,582.00 L 682.50,583.00 L 681.60,583.00 L 681.60,583.00 L 680.70,584.00 L 680.70,584.00 L 679.80,585.00 L 678.90,585.00 L 678.90,585.00 L 678.00,586.00 L 678.00,586.00 L 677.10,587.00 L 676.20,587.00 L 676.20,587.00 L 675.30,588.00 L 675.30,588.00 L 674.40,589.00 L 673.50,589.00 L 673.50,589.00 L 672.60,590.00 L 672.60,590.00 L 671.70,591.00 L 671.70,591.00 L 670.80,592.00 L 669.90,592.00 L 669.90,592.00 L 669.00,593.00 L 669.00,593.00 L 668.10,594.00 L 667.20,594.00 L 667.20,594.00 L 666.30,595.00 L 666.30,595.00 L 665.40,596.00 L 664.50,596.00 L 664.50,596.00 L 663.60,597.00 L 663.60,597.00 L 662.70,598.00 L 661.80,598.00 L 661.80,598.00 L 660.90,599.00 L 660.90,599.00 L 660.00,600.00 L 659.10,600.00 L 659.10,600.00 L 658.20,601.00 L 658.20,601.00 L 657.30,602.00 L 656.40,602.00 L 655.50,602.00 L 654.60,601.00 L 655.50,600.00 L 655.50,600.00 L 656.40,599.00 L 656.40,599.00 L 657.30,598.00 L 657.30,598.00 L 657.30,597.00 L 658.20,596.00 L 658.20,596.00 L 659.10,595.00 L 659.10,595.00 L 659.10,594.00 L 660.00,593.00 L 660.00,593.00 L 660.90,592.00 L 660.90,592.00 L 660.90,591.00 L 661.80,590.00 L 661.80,590.00 L 662.70,589.00 L 662.70,589.00 L 662.70,588.00 L 663.60,587.00 L 663.60,587.00 L 664.50,586.00 L 664.50,586.00 L 665.40,585.00 L 665.40,585.00 L 665.40,584.00 L 666.30,583.00 L 666.30,583.00 L 667.20,582.00 L 667.20,582.00 L 667.20,581.00 L 668.10,580.00 L 668.10,580.00 L 669.00,579.00 L 669.00,579.00 L 669.00,578.00 L 669.90,577.00 L 669.90,577.00 L 670.80,576.00 L 670.80,576.00 L 670.80,575.00 L 671.70,574.00 L 671.70,574.00 L 672.60,573.00 L 672.60,573.00 L 672.60,572.00 L 673.50,571.00 L 673.50,571.00 L 674.40,570.00 L 674.40,570.00 L 675.30,569.00 L 675.30,569.00 L 675.30,568.00 L 676.20,567.00 L 676.20,567.00 L 676.20,566.00 L 677.10,565.00 L 677.10,565.00 L 678.00,564.00 L 678.00,564.00 L 678.90,563.00 L 678.90,563.00 L 678.90,562.00 L 679.80,561.00 L 679.80,561.00 L 680.70,560.00 L 680.70,560.00 L 681.60,559.00 L 681.60,559.00 L 682.50,558.00 L 682.50,558.00 L 682.50,557.00 L 683.40,556.00 L 683.40,556.00 L 684.30,555.00 L 684.30,555.00 L 684.30,554.00 L 685.20,553.00 L 685.20,553.00 L 686.10,552.00 L 686.10,552.00 L 686.10,551.00 L 687.00,550.00 L 687.00,550.00 L 687.90,549.00 L 687.90,549.00 L 687.90,548.00 L 688.80,547.00 L 688.80,547.00 L 689.70,546.00 L 689.70,546.00 L 690.60,545.00 L 690.60,545.00 L 690.60,544.00 L 691.50,543.00 L 691.50,543.00 L 691.50,542.00 L 692.40,541.00 L 692.40,541.00 L 693.30,540.00 L 693.30,540.00 L 694.20,539.00 L 694.20,539.00 L 694.20,538.00 L 695.10,537.00 L 695.10,537.00 L 696.00,536.00 L 696.00,536.00 L 696.90,535.00 L 696.90,535.00 L 696.90,534.00 L 697.80,533.00 L 697.80,533.00 L 698.70,532.00 L 698.70,532.00 L 698.70,531.00 L 699.60,530.00 L 699.60,530.00 L 700.50,529.00 L 700.50,529.00 L 701.40,528.00 L 701.40,528.00 L 701.40,527.00 L 702.30,526.00 L 702.30,526.00 L 703.20,525.00 L 703.20,525.00 L 703.20,524.00 L 704.10,523.00 L 704.10,523.00 L 705.00,522.00 L 705.00,522.00 L 705.00,521.00 L 705.90,520.00 L 705.90,520.00 L 706.80,519.00 L 706.80,519.00 L 706.80,518.00 L 707.70,517.00 L 707.70,517.00 L 708.60,516.00 L 708.60,516.00 L 708.60,516.00 L 707.70,516.00 L 706.80,516.00 L 705.90,516.00 L 705.00,515.00 L 705.00,515.00 L 704.10,515.00 L 703.20,515.00 L 702.30,515.00 L 701.40,515.00 L 700.50,514.00 L 700.50,514.00 L 699.60,514.00 L 698.70,514.00 L 697.80,514.00 L 696.90,514.00 L 696.00,514.00 L 695.10,513.00 L 695.10,513.00 L 694.20,513.00 L 693.30,513.00 L 692.40,513.00 L 691.50,513.00 L 690.60,513.00 L 689.70,512.00 L 689.70,512.00 L 688.80,512.00 L 687.90,512.00 L 687.00,512.00 L 686.10,512.00 L 685.20,511.00 L 685.20,511.00 L 684.30,511.00 L 683.40,511.00 L 682.50,511.00 L 681.60,511.00 L 680.70,511.00 L 679.80,510.00 L 679.80,510.00 L 678.90,510.00 L 678.00,510.00 L 677.10,510.00 L 676.20,510.00 L 675.30,510.00 L 674.40,509.00 L 674.40,509.00 L 673.50,509.00 L 672.60,509.00 L 671.70,509.00 L 670.80,509.00 L 669.90,509.00 L 669.00,508.00 L 669.00,508.00 L 668.10,508.00 L 667.20,508.00 L 666.30,508.00 L 665.40,508.00 L 664.50,508.00 L 663.60,507.00 L 663.60,507.00 L 662.70,507.00 L 661.80,507.00 L 660.90,507.00 L 660.00,507.00 L 659.10,507.00 L 658.20,506.00 L 658.20,506.00 L 657.30,506.00 L 656.40,506.00 L 655.50,506.00 L 654.60,506.00 L 653.70,505.00 L 653.70,505.00 L 652.80,505.00 L 651.90,505.00 L 651.00,505.00 L 650.10,505.00 L 649.20,504.00 L 649.20,504.00 L 648.30,504.00 L 647.40,504.00 L 646.50,504.00 L 645.60,504.00 L 644.70,504.00 L 643.80,503.00 L 643.80,503.00 L 642.90,503.00 L 642.00,503.00 L 641.10,503.00 L 640.20,503.00 L 639.30,502.00 L 639.30,502.00 L 638.40,502.00 L 637.50,502.00 L 636.60,502.00 L 635.70,502.00 L 634.80,501.00 L 634.80,501.00 L 633.90,501.00 L 633.00,501.00 L 632.10,501.00 L 631.20,501.00 L 630.30,501.00 L 629.40,500.00 L 629.40,500.00 L 628.50,500.00 L 627.60,500.00 L 626.70,500.00 L 625.80,500.00 L 624.90,499.00 L 624.90,499.00 L 624.00,499.00 L 623.10,499.00 L 622.20,499.00 L 621.30,499.00 L 620.40,498.00 L 620.40,498.00 L 619.50,498.00 L 618.60,498.00 L 617.70,498.00 L 616.80,498.00 L 615.90,497.00 L 615.90,497.00 L 615.00,497.00 L 614.10,497.00 L 613.20,497.00 L 612.30,497.00 L 611.40,496.00 L 611.40,496.00 L 610.50,496.00 L 609.60,496.00 L 608.70,496.00 L 607.80,496.00 L 606.90,495.00 L 606.90,495.00 L 606.00,495.00 L 605.10,495.00 L 604.20,495.00 L 603.30,495.00 L 602.40,495.00 L 601.50,494.00 L 601.50,494.00 L 600.60,494.00 L 599.70,494.00 L 598.80,494.00 L 597.90,494.00 L 597.00,493.00 L 597.00,493.00 L 596.10,493.00 L 595.20,493.00 L 594.30,493.00 L 593.40,493.00 L 592.50,493.00 L 591.60,492.00 L 591.60,492.00 L 590.70,492.00 L 589.80,492.00 L 588.90,492.00 L 588.00,492.00 L 587.10,492.00 L 586.20,491.00 L 586.20,491.00 L 585.30,491.00 L 584.40,491.00 L 583.50,491.00 L 582.60,491.00 L 581.70,491.00 L 580.80,490.00 L 580.80,490.00 L 579.90,490.00 L 579.00,490.00 L 578.10,490.00 L 577.20,490.00 L 576.30,490.00 L 575.40,489.00 L 575.40,489.00 L 574.50,489.00 L 573.60,489.00 L 572.70,489.00 L 571.80,489.00 L 570.90,489.00 L 570.00,488.00 L 570.00,488.00 L 569.10,488.00 L 568.20,488.00 L 567.30,488.00 L 566.40,487.00 L 566.40,487.00 L 565.50,487.00 L 564.60,487.00 L 563.70,487.00 L 562.80,487.00 L 561.90,486.00 L 561.90,486.00 L 561.00,486.00 L 560.10,486.00 L 559.20,486.00 L 558.30,486.00 L 557.40,486.00 L 556.50,485.00 L 556.50,485.00 L 555.60,485.00 L 554.70,485.00 L 553.80,485.00 L 552.90,485.00 L 552.00,484.00 L 552.00,484.00 L 551.10,484.00 L 550.20,484.00 L 549.30,484.00 L 548.40,484.00 L 547.50,484.00 L 546.60,483.00 L 546.60,483.00 L 545.70,483.00 L 544.80,483.00 L 543.90,482.00 L 543.90,482.00 L 543.00,481.00 L 543.90,480.00 L 543.90,480.00 L 544.80,479.00 L 545.70,479.00 L 546.60,479.00 L 547.50,479.00 L 548.40,479.00 L 549.30,479.00 L 550.20,479.00 L 550.20,479.00 L 551.10,478.00 L 552.00,478.00 L 552.90,478.00 L 553.80,478.00 L 554.70,478.00 L 555.60,478.00 L 555.60,478.00 L 556.50,477.00 L 557.40,477.00 L 558.30,477.00 L 559.20,477.00 L 560.10,477.00 L 560.10,477.00 L 561.00,476.00 L 561.90,476.00 L 562.80,476.00 L 563.70,476.00 L 564.60,476.00 L 565.50,476.00 L 565.50,476.00 L 566.40,475.00 L 567.30,475.00 L 568.20,475.00 L 569.10,475.00 L 570.00,475.00 L 570.00,475.00 L 570.90,474.00 L 571.80,474.00 L 572.70,474.00 L 573.60,474.00 L 574.50,474.00 L 574.50,474.00 L 575.40,473.00 L 576.30,473.00 L 577.20,473.00 L 578.10,473.00 L 579.00,473.00 L 579.00,473.00 L 579.90,472.00 L 580.80,472.00 L 581.70,472.00 L 582.60,472.00 L 583.50,472.00 L 584.40,472.00 L 584.40,472.00 L 585.30,471.00 L 586.20,471.00 L 587.10,471.00 L 588.00,471.00 L 588.90,471.00 L 589.80,471.00 L 589.80,471.00 L 590.70,470.00 L 591.60,470.00 L 592.50,470.00 L 593.40,470.00 L 593.40,470.00 L 594.30,469.00 L 595.20,469.00 L 596.10,469.00 L 597.00,469.00 L 597.90,469.00 L 598.80,469.00 L 598.80,469.00 L 599.70,468.00 L 600.60,468.00 L 601.50,468.00 L 602.40,468.00 L 603.30,468.00 L 604.20,468.00 L 604.20,468.00 L 605.10,467.00 L 606.00,467.00 L 606.90,467.00 L 607.80,467.00 L 608.70,467.00 L 608.70,467.00 L 609.60,466.00 L 610.50,466.00 L 611.40,466.00 L 612.30,466.00 L 613.20,466.00 L 613.20,466.00 L 614.10,465.00 L 615.00,465.00 L 615.90,465.00 L 616.80,465.00 L 617.70,465.00 L 618.60,465.00 L 618.60,465.00 L 619.50,464.00 L 620.40,464.00 L 621.30,464.00 L 622.20,464.00 L 623.10,464.00 L 623.10,464.00 L 624.00,463.00 L 624.90,463.00 L 625.80,463.00 L 626.70,463.00 L 627.60,463.00 L 627.60,463.00 L 628.50,462.00 L 629.40,462.00 L 630.30,462.00 L 631.20,462.00 L 632.10,462.00 L 632.10,462.00 L 633.00,461.00 L 633.90,461.00 L 634.80,461.00 L 635.70,461.00 L 636.60,461.00 L 637.50,461.00 L 637.50,461.00 L 638.40,460.00 L 639.30,460.00 L 640.20,460.00 L 641.10,460.00 L 642.00,460.00 L 642.00,460.00 L 642.90,459.00 L 643.80,459.00 L 644.70,459.00 L 645.60,459.00 L 646.50,459.00 L 647.40,459.00 L 647.40,459.00 L 648.30,458.00 L 649.20,458.00 L 650.10,458.00 L 651.00,458.00 L 651.90,458.00 L 652.80,458.00 L 652.80,458.00 L 653.70,457.00 L 654.60,457.00 L 655.50,457.00 L 656.40,457.00 L 657.30,457.00 L 657.30,457.00 L 658.20,456.00 L 659.10,456.00 L 660.00,456.00 L 660.90,456.00 L 661.80,456.00 L 661.80,456.00 L 662.70,455.00 L 663.60,455.00 L 664.50,455.00 L 665.40,455.00 L 666.30,455.00 L 667.20,455.00 L 667.20,455.00 L 668.10,454.00 L 669.00,454.00 L 669.90,454.00 L 670.80,454.00 L 671.70,454.00 L 671.70,454.00 L 672.60,453.00 L 673.50,453.00 L 674.40,453.00 L 675.30,453.00 L 676.20,453.00 L 676.20,453.00 L 677.10,452.00 L 678.00,452.00 L 678.90,452.00 L 679.80,452.00 L 680.70,452.00 L 680.70,452.00 L 681.60,451.00 L 682.50,451.00 L 683.40,451.00 L 684.30,451.00 L 685.20,451.00 L 685.20,451.00 L 686.10,450.00 L 687.00,450.00 L 687.90,450.00 L 688.80,450.00 L 689.70,450.00 L 689.70,450.00 L 690.60,449.00 L 691.50,449.00 L 692.40,449.00 L 693.30,449.00 L 694.20,449.00 L 694.20,449.00 L 695.10,448.00 L 696.00,448.00 L 696.90,448.00 L 697.80,448.00 L 698.70,448.00 L 699.60,448.00 L 699.60,448.00 L 700.50,447.00 L 701.40,447.00 L 702.30,447.00 L 703.20,447.00 L 703.20,447.00 L 704.10,446.00 L 705.00,446.00 L 705.90,446.00 L 706.80,446.00 L 707.70,446.00 L 708.60,446.00 L 702.00,452.60 L 702.00,452.60 L 701.00,451.70 L 701.00,451.70 L 700.00,450.80 L 700.00,449.90 L 700.00,449.90 L 699.00,449.00 L 699.00,449.00 L 698.00,448.10 L 698.00,447.20 L 698.00,447.20 L 697.00,446.30 L 697.00,446.30 L 696.00,445.40 L 696.00,444.50 L 696.00,444.50 L 695.00,443.60 L 695.00,443.60 L 694.00,442.70 L 694.00,442.70 L 693.00,441.80 L 693.00,440.90 L 693.00,440.90 L 692.00,440.00 L 692.00,440.00 L 691.00,439.10 L 691.00,438.20 L 691.00,438.20 L 690.00,437.30 L 690.00,437.30 L 689.00,436.40 L 689.00,436.40 L 688.00,435.50 L 688.00,434.60 L 688.00,434.60 L 687.00,433.70 L 687.00,433.70 L 686.00,432.80 L 686.00,431.90 L 686.00,431.90 L 685.00,431.00 L 685.00,431.00 L 684.00,430.10 L 684.00,430.10 L 683.00,429.20 L 683.00,428.30 L 683.00,428.30 L 682.00,427.40 L 682.00,427.40 L 681.00,426.50 L 681.00,425.60 L 681.00,425.60 L 680.00,424.70 L 680.00,424.70 L 679.00,423.80 L 679.00,423.80 L 678.00,422.90 L 678.00,422.00 L 678.00,422.00 L 677.00,421.10 L 677.00,421.10 L 676.00,420.20 L 676.00,419.30 L 676.00,419.30 L 675.00,418.40 L 675.00,418.40 L 674.00,417.50 L 674.00,416.60 L 674.00,416.60 L 673.00,415.70 L 673.00,415.70 L 672.00,414.80 L 672.00,414.80 L 671.00,413.90 L 671.00,413.00 L 671.00,413.00 L 670.00,412.10 L 670.00,412.10 L 669.00,411.20 L 669.00,411.20 L 668.00,410.30 L 668.00,409.40 L 668.00,409.40 L 667.00,408.50 L 667.00,408.50 L 666.00,407.60 L 666.00,407.60 L 665.00,406.70 L 665.00,405.80 L 665.00,405.80 L 664.00,404.90 L 664.00,404.90 L 663.00,404.00 L 663.00,403.10 L 663.00,403.10 L 662.00,402.20 L 662.00,402.20 L 661.00,401.30 L 661.00,400.40 L 661.00,400.40 L 660.00,399.50 L 660.00,399.50 L 659.00,398.60 L 659.00,397.70 L 659.00,397.70 L 658.00,396.80 L 658.00,396.80 L 657.00,395.90 L 657.00,395.90 L 656.00,395.00 L 656.00,394.10 L 656.00,394.10 L 655.00,393.20 L 655.00,393.20 L 654.00,392.30 L 654.00,391.40 L 654.00,391.40 L 653.00,390.50 L 653.00,390.50 L 652.00,389.60 L 652.00,389.60 L 651.00,388.70 L 651.00,387.80 L 651.00,387.80 L 650.00,386.90 L 650.00,386.90 L 649.00,386.00 L 649.00,386.00 L 648.00,385.10 L 648.00,384.20 L 648.00,384.20 L 647.00,383.30 L 647.00,383.30 L 646.00,382.40 L 646.00,381.50 L 646.00,381.50 L 645.00,380.60 L 645.00,380.60 L 644.00,379.70 L 644.00,378.80 L 644.00,378.80 L 643.00,377.90 L 643.00,377.90 L 642.00,377.00 L 642.00,376.10 L 642.00,376.10 L 641.00,375.20 L 641.00,375.20 L 640.00,374.30 L 641.00,373.40 L 642.00,373.40 L 643.00,373.40 L 644.00,374.30 L 644.00,374.30 L 645.00,375.20 L 645.00,375.20 L 646.00,376.10 L 646.00,376.10 L 647.00,376.10 L 648.00,377.00 L 648.00,377.00 L 649.00,377.90 L 649.00,377.90 L 650.00,377.90 L 651.00,378.80 L 651.00,378.80 L 652.00,379.70 L 652.00,379.70 L 653.00,379.70 L 654.00,380.60 L 654.00,380.60 L 655.00,381.50 L 655.00,381.50 L 656.00,382.40 L 656.00,382.40 L 657.00,382.40 L 658.00,383.30 L 658.00,383.30 L 659.00,384.20 L 659.00,384.20 L 660.00,384.20 L 661.00,385.10 L 661.00,385.10 L 662.00,385.10 L 663.00,386.00 L 663.00,386.00 L 664.00,386.00 L 665.00,386.90 L 665.00,386.90 L 666.00,387.80 L 666.00,387.80 L 667.00,387.80 L 668.00,387.80 L 669.00,388.70 L 669.00,389.60 L 669.00,389.60 L 670.00,390.50 L 670.00,390.50 L 671.00,390.50 L 672.00,391.40 L 672.00,391.40 L 673.00,392.30 L 673.00,392.30 L 674.00,393.20 L 674.00,393.20 L 675.00,393.20 L 676.00,394.10 L 676.00,394.10 L 677.00,395.00 L 677.00,395.00 L 678.00,395.00 L 679.00,395.90 L 679.00,395.90 L 680.00,396.80 L 680.00,396.80 L 681.00,396.80 L 682.00,397.70 L 682.00,397.70 L 683.00,398.60 L 683.00,398.60 L 684.00,398.60 L 685.00,399.50 L 685.00,399.50 L 686.00,400.40 L 686.00,400.40 L 687.00,400.40 L 688.00,401.30 L 688.00,401.30 L 689.00,401.30 L 690.00,402.20 L 690.00,402.20 L 691.00,403.10 L 691.00,403.10 L 692.00,403.10 L 693.00,404.00 L 693.00,404.00 L 694.00,404.90 L 694.00,404.90 L 695.00,404.90 L 696.00,405.80 L 696.00,405.80 L 697.00,406.70 L 697.00,406.70 L 698.00,406.70 L 699.00,407.60 L 699.00,407.60 L 700.00,408.50 L 700.00,408.50 L 701.00,408.50 L 702.00,409.40 L 702.00,409.40 L 703.00,410.30 L 703.00,410.30 L 704.00,411.20 L 704.00,411.20 L 705.00,412.10 L 705.00,412.10 L 706.00,412.10 L 707.00,413.00 L 707.00,413.00 L 708.00,413.00 L 709.00,413.90 L 709.00,413.90 L 710.00,414.80 L 710.00,414.80 L 711.00,414.80 L 712.00,415.70 L 712.00,415.70 L 713.00,416.60 L 713.00,416.60 L 714.00,416.60 L 715.00,417.50 L 715.00,417.50 L 716.00,418.40 L 716.00,418.40 L 717.00,418.40 L 718.00,419.30 L 718.00,419.30 L 719.00,419.30 L 720.00,420.20 L 720.00,420.20 L 721.00,421.10 L 721.00,421.10 L 722.00,421.10 L 723.00,422.00 L 723.00,422.00 L 724.00,422.90 L 724.00,422.90 L 725.00,422.90 L 726.00,423.80 L 726.00,423.80 L 727.00,424.70 L 727.00,424.70 L 728.00,425.60 L 728.00,425.60 L 729.00,425.60 L 730.00,426.50 L 730.00,426.50 L 731.00,427.40 L 731.00,427.40 L 732.00,427.40 L 733.00,428.30 L 733.00,428.30 L 734.00,429.20 L 734.00,429.20 L 734.00,429.20 L 734.00,428.30 L 734.00,427.40 L 734.00,426.50 L 734.00,425.60 L 734.00,424.70 L 734.00,423.80 L 734.00,422.90 L 734.00,422.00 L 735.00,421.10 L 735.00,421.10 L 735.00,420.20 L 735.00,419.30 L 735.00,418.40 L 735.00,417.50 L 736.00,416.60 L 736.00,416.60 L 736.00,415.70 L 736.00,414.80 L 736.00,413.90 L 736.00,413.00 L 737.00,412.10 L 737.00,412.10 L 737.00,411.20 L 737.00,410.30 L 737.00,409.40 L 737.00,408.50 L 738.00,407.60 L 738.00,407.60 L 738.00,406.70 L 738.00,405.80 L 738.00,404.90 L 738.00,404.00 L 738.00,403.10 L 739.00,402.20 L 739.00,402.20 L 739.00,401.30 L 739.00,400.40 L 739.00,399.50 L 739.00,398.60 L 740.00,397.70 L 740.00,397.70 L 740.00,396.80 L 740.00,395.90 L 740.00,395.00 L 740.00,394.10 L 741.00,393.20 L 741.00,393.20 L 741.00,392.30 L 741.00,391.40 L 741.00,390.50 L 741.00,389.60 L 741.00,388.70 L 742.00,387.80 L 742.00,387.80 L 742.00,386.90 L 742.00,386.00 L 742.00,385.10 L 742.00,384.20 L 743.00,383.30 L 743.00,383.30 L 743.00,382.40 L 743.00,381.50 L 743.00,380.60 L 743.00,379.70 L 743.00,378.80 L 744.00,377.90 L 744.00,377.90 L 744.00,377.00 L 744.00,376.10 L 744.00,375.20 L 744.00,374.30 L 745.00,373.40 L 745.00,373.40 L 745.00,372.50 L 745.00,371.60 L 745.00,370.70 L 745.00,369.80 L 746.00,368.90 L 746.00,368.90 L 746.00,368.00 L 746.00,367.10 L 746.00,366.20 L 746.00,365.30 L 746.00,364.40 L 747.00,363.50 L 747.00,363.50 L 747.00,362.60 L 747.00,361.70 L 747.00,360.80 L 747.00,359.90 L 748.00,359.00 L 748.00,359.00 L 748.00,358.10 L 748.00,357.20 L 748.00,356.30 L 748.00,355.40 L 748.00,354.50 L 749.00,353.60 L 749.00,353.60 L 749.00,352.70 L 749.00,351.80 L 749.00,350.90 L 749.00,350.00 L 749.00,349.10 L 750.00,348.20 L 750.00,348.20 L 750.00,347.30 L 750.00,346.40 L 750.00,345.50 L 750.00,344.60 L 750.00,343.70 L 751.00,342.80 L 751.00,342.80 L 751.00,341.90 L 751.00,341.00 L 751.00,340.10 L 751.00,339.20 L 752.00,338.30 L 752.00,338.30 L 752.00,337.40 L 752.00,336.50 L 752.00,335.60 L 752.00,334.70 L 752.00,333.80 L 753.00,332.90 L 753.00,332.90 L 753.00,332.00 L 753.00,331.10 L 753.00,330.20 L 753.00,329.30 L 754.00,328.40 L 754.00,328.40 L 754.00,327.50 L 754.00,326.60 L 754.00,325.70 L 754.00,324.80 L 754.00,323.90 L 754.00,323.00 L 755.00,322.10 L 755.00,322.10 L 755.00,321.20 L 755.00,320.30 L 755.00,319.40 L 755.00,318.50 L 755.00,317.60 L 756.00,316.70 L 756.00,316.70 L 756.00,315.80 L 756.00,314.90 L 756.00,314.00 L 757.00,313.10 L 757.00,313.10 L 757.00,312.20 L 757.00,311.30 L 757.00,310.40 L 757.00,309.50 L 757.00,308.60 L 758.00,307.70 L 758.00,307.70 L 758.00,306.80 L 758.00,305.90 L 758.00,305.00 L 758.00,304.10 L 758.00,303.20 L 759.00,302.30 L 759.00,302.30 L 759.00,301.40 L 759.00,300.50 L 759.00,299.60 L 759.00,298.70 L 760.00,297.80 L 760.00,297.80 L 760.00,296.90 L 760.00,296.00 L 760.00,295.10 L 760.00,294.20 L 760.00,293.30 L 761.00,292.40 L 761.00,292.40 L 761.00,291.50 L 761.00,290.60 L 761.00,289.70 L 761.00,288.80 L 762.00,287.90 L 762.00,287.90 L 762.00,287.00 L 762.00,286.10 L 762.00,285.20 L 762.00,284.30 L 763.00,283.40 L 763.00,283.40 L 763.00,282.50 L 763.00,281.60 L 763.00,280.70 L 763.00,279.80 L 763.00,278.90 L 764.00,278.00 L 764.00,278.00 L 764.00,277.10 L 764.00,276.20 L 764.00,275.30 L 764.00,274.40 L 765.00,273.50 L 765.00,273.50 L 765.00,272.60 L 765.00,271.70 L 765.00,270.80 L 766.00,269.90 L 766.00,269.90 L 766.00,269.00 L 766.00,268.10 L 766.00,267.20 L 766.00,266.30 L 767.00,265.40 L 768.00,265.40 L 769.00,266.30 L 769.00,267.20 L 769.00,268.10 L 769.00,269.00 L 769.00,269.00 L 770.00,269.90 L 770.00,270.80 L 770.00,271.70 L 770.00,272.60 L 770.00,273.50 L 770.00,273.50 L 771.00,274.40 L 771.00,275.30 L 771.00,276.20 L 771.00,277.10 L 771.00,278.00 L 771.00,278.00 L 772.00,278.90 L 772.00,279.80 L 772.00,280.70 L 772.00,281.60 L 772.00,282.50 L 772.00,282.50 L 773.00,283.40 L 773.00,284.30 L 773.00,285.20 L 773.00,286.10 L 773.00,287.00 L 773.00,287.90 L 773.00,287.90 L 774.00,288.80 L 774.00,289.70 L 774.00,290.60 L 774.00,291.50 L 774.00,292.40 L 774.00,293.30 L 774.00,293.30 L 775.00,294.20 L 775.00,295.10 L 775.00,296.00 L 775.00,296.90 L 775.00,297.80 L 775.00,297.80 L 776.00,298.70 L 776.00,299.60 L 776.00,300.50 L 776.00,301.40 L 776.00,302.30 L 776.00,302.30 L 777.00,303.20 L 777.00,304.10 L 777.00,305.00 L 777.00,305.90 L 777.00,306.80 L 777.00,307.70 L 777.00,307.70 L 778.00,308.60 L 778.00,309.50 L 778.00,310.40 L 778.00,311.30 L 778.00,312.20 L 778.00,313.10 L 778.00,313.10 L 779.00,314.00 L 779.00,314.90 L 779.00,315.80 L 779.00,316.70 L 779.00,317.60 L 779.00,318.50 L 779.00,318.50 L 780.00,319.40 L 780.00,320.30 L 780.00,321.20 L 780.00,322.10 L 780.00,323.00 L 780.00,323.90 L 780.00,323.90 L 781.00,324.80 L 781.00,325.70 L 781.00,326.60 L 781.00,327.50 L 781.00,328.40 L 781.00,329.30 L 781.00,329.30 L 782.00,330.20 L 782.00,331.10 L 782.00,332.00 L 782.00,332.90 L 782.00,333.80 L 782.00,333.80 L 783.00,334.70 L 783.00,335.60 L 783.00,336.50 L 783.00,337.40 L 783.00,338.30 L 783.00,339.20 L 783.00,339.20 L 784.00,340.10 L 784.00,341.00 L 784.00,341.90 L 784.00,342.80 L 784.00,343.70 L 784.00,344.60 L 784.00,344.60 L 785.00,345.50 L 785.00,346.40 L 785.00,347.30 L 785.00,348.20 L 785.00,349.10 L 785.00,349.10 L 786.00,350.00 L 786.00,350.90 L 786.00,351.80 L 786.00,352.70 L 786.00,353.60 L 786.00,353.60 L 787.00,354.50 L 787.00,355.40 L 787.00,356.30 L 787.00,357.20 L 787.00,358.10 L 787.00,358.10 L 788.00,359.00 L 788.00,359.90 L 788.00,360.80 L 788.00,361.70 L 788.00,362.60 L 788.00,362.60 L 789.00,363.50 L 789.00,364.40 L 789.00,365.30 L 789.00,366.20 L 789.00,367.10 L 789.00,367.10 L 790.00,368.00 L 790.00,368.90 L 790.00,369.80 L 790.00,370.70 L 790.00,371.60 L 790.00,371.60 L 791.00,372.50 L 791.00,373.40 L 791.00,374.30 L 791.00,375.20 L 791.00,376.10 L 791.00,377.00 L 791.00,377.00 L 792.00,377.90 L 792.00,378.80 L 792.00,379.70 L 792.00,380.60 L 792.00,381.50 L 792.00,382.40 L 792.00,382.40 L 793.00,383.30 L 793.00,384.20 L 793.00,385.10 L 793.00,386.00 L 793.00,386.90 L 793.00,386.90 L 794.00,387.80 L 794.00,388.70 L 794.00,389.60 L 794.00,390.50 L 794.00,391.40 L 794.00,391.40 L 795.00,392.30 L 795.00,393.20 L 795.00,394.10 L 795.00,395.00 L 795.00,395.90 L 795.00,396.80 L 795.00,397.70 L 795.00,397.70 L 796.00,398.60 L 796.00,399.50 L 796.00,400.40 L 796.00,401.30 L 796.00,402.20 L 796.00,402.20 L 797.00,403.10 L 797.00,404.00 L 797.00,404.90 L 797.00,405.80 L 797.00,406.70 L 797.00,407.60 L 797.00,408.50 L 797.00,408.50 L 798.00,409.40 L 798.00,410.30 L 798.00,411.20 L 798.00,412.10 L 798.00,413.00 L 798.00,413.90 L 798.00,414.80 L 798.00,414.80 L 799.00,415.70 L 799.00,416.60 L 799.00,417.50 L 799.00,418.40 L 799.00,419.30 L 799.00,419.30 L 800.00,420.20 L 800.00,421.10 L 800.00,422.00 L 800.00,422.90 L 800.00,423.80 L 800.00,424.70 L 800.00,424.70 L 801.00,425.60 L 801.00,426.50 L 801.00,427.40 L 801.00,428.30 L 801.00,429.20 L 801.00,429.20 L 801.00,429.20 L 802.00,428.30 L 803.00,428.30 L 803.00,428.30 L 804.00,427.40 L 804.00,427.40 L 805.00,426.50 L 806.00,426.50 L 806.00,426.50 L 807.00,425.60 L 807.00,425.60 L 808.00,424.70 L 808.00,424.70 L 809.00,423.80 L 810.00,423.80 L 810.00,423.80 L 811.00,422.90 L 811.00,422.90 L 812.00,422.00 L 813.00,422.00 L 813.00,422.00 L 814.00,421.10 L 814.00,421.10 L 815.00,420.20 L 816.00,420.20 L 816.00,420.20 L 817.00,419.30 L 817.00,419.30 L 818.00,418.40 L 818.00,418.40 L 819.00,417.50 L 820.00,417.50 L 820.00,417.50 L 821.00,416.60 L 822.00,416.60 L 822.00,416.60 L 823.00,415.70 L 823.00,415.70 L 824.00,414.80 L 825.00,414.80 L 825.00,414.80 L 826.00,413.90 L 826.00,413.90 L 827.00,413.00 L 828.00,413.00 L 828.00,413.00 L 829.00,412.10 L 829.00,412.10 L 830.00,411.20 L 831.00,411.20 L 831.00,411.20 L 832.00,410.30 L 832.00,410.30 L 833.00,409.40 L 833.00,409.40 L 834.00,408.50 L 835.00,408.50 L 835.00,408.50 L 836.00,407.60 L 836.00,407.60 L 837.00,406.70 L 838.00,406.70 L 838.00,406.70 L 839.00,405.80 L 839.00,405.80 L 840.00,404.90 L 841.00,404.90 L 841.00,404.90 L 842.00,404.00 L 842.00,404.00 L 843.00,403.10 L 843.00,403.10 L 844.00,402.20 L 845.00,402.20 L 845.00,402.20 L 846.00,401.30 L 847.00,401.30 L 847.00,401.30 L 848.00,400.40 L 848.00,400.40 L 849.00,399.50 L 850.00,399.50 L 850.00,399.50 L 851.00,398.60 L 852.00,398.60 L 852.00,398.60 L 853.00,397.70 L 853.00,397.70 L 854.00,396.80 L 854.00,396.80 L 855.00,395.90 L 856.00,395.90 L 856.00,395.90 L 857.00,395.00 L 857.00,395.00 L 858.00,394.10 L 859.00,394.10 L 859.00,394.10 L 860.00,393.20 L 860.00,393.20 L 861.00,392.30 L 861.00,392.30 L 862.00,391.40 L 863.00,391.40 L 863.00,391.40 L 864.00,390.50 L 864.00,390.50 L 865.00,389.60 L 866.00,389.60 L 866.00,389.60 L 867.00,388.70 L 867.00,388.70 L 868.00,387.80 L 869.00,387.80 L 869.00,387.80 L 870.00,386.90 L 871.00,386.90 L 871.00,386.90 L 872.00,386.00 L 872.00,386.00 L 873.00,385.10 L 874.00,385.10 L 874.00,385.10 L 875.00,384.20 L 875.00,384.20 L 876.00,383.30 L 876.00,383.30 L 877.00,382.40 L 878.00,382.40 L 878.00,382.40 L 879.00,381.50 L 879.00,381.50 L 880.00,380.60 L 881.00,380.60 L 881.00,380.60 L 882.00,379.70 L 882.00,379.70 L 883.00,378.80 L 884.00,378.80 L 884.00,378.80 L 885.00,377.90 L 885.00,377.90 L 886.00,377.00 L 887.00,377.00 L 887.00,377.00 L 888.00,376.10 L 888.00,376.10 L 889.00,375.20 L 890.00,375.20 L 890.00,375.20 L 891.00,374.30 L 891.00,374.30 L 892.00,373.40 L 893.00,373.40 L 894.00,374.30 L 894.00,375.20 L 893.00,376.10 L 893.00,376.10 L 892.00,377.00 L 892.00,377.00 L 892.00,377.90 L 891.00,378.80 L 891.00,378.80 L 890.00,379.70 L 890.00,379.70 L 890.00,380.60 L 889.00,381.50 L 889.00,381.50 L 888.00,382.40 L 888.00,382.40 L 888.00,383.30 L 887.00,384.20 L 887.00,384.20 L 886.00,385.10 L 886.00,385.10 L 886.00,386.00 L 885.00,386.90 L 885.00,386.90 L 884.00,387.80 L 884.00,387.80 L 884.00,388.70 L 883.00,389.60 L 883.00,389.60 L 882.00,390.50 L 882.00,390.50 L 881.00,391.40 L 881.00,391.40 L 881.00,392.30 L 880.00,393.20 L 880.00,393.20 L 879.00,394.10 L 879.00,394.10 L 878.00,395.00 L 878.00,395.00 L 878.00,395.90 L 877.00,396.80 L 877.00,396.80 L 876.00,397.70 L 876.00,397.70 L 876.00,398.60 L 875.00,399.50 L 875.00,399.50 L 874.00,400.40 L 874.00,400.40 L 873.00,401.30 L 873.00,401.30 L 873.00,402.20 L 872.00,403.10 L 872.00,403.10 L 871.00,404.00 L 871.00,404.00 L 870.00,404.90 L 870.00,404.90 L 870.00,405.80 L 869.00,406.70 L 869.00,406.70 L 868.00,407.60 L 868.00,407.60 L 868.00,408.50 L 867.00,409.40 L 867.00,409.40 L 866.00,410.30 L 866.00,410.30 L 866.00,411.20 L 865.00,412.10 L 865.00,412.10 L 864.00,413.00 L 864.00,413.00 L 864.00,413.90 L 863.00,414.80 L 863.00,414.80 L 862.00,415.70 L 862.00,415.70 L 861.00,416.60 L 861.00,416.60 L 861.00,417.50 L 860.00,418.40 L 860.00,418.40 L 859.00,419.30 L 859.00,419.30 L 859.00,420.20 L 858.00,421.10 L 858.00,421.10 L 857.00,422.00 L 857.00,422.00 L 856.00,422.90 L 856.00,422.90 L 855.00,423.80 L 855.00,423.80 L 855.00,424.70 L 854.00,425.60 L 854.00,425.60 L 853.00,426.50 L 853.00,426.50 L 853.00,427.40 L 852.00,428.30 L 852.00,428.30 L 851.00,429.20 L 851.00,429.20 L 851.00,430.10 L 850.00,431.00 L 850.00,431.00 L 849.00,431.90 L 849.00,431.90 L 849.00,432.80 L 848.00,433.70 L 848.00,433.70 L 847.00,434.60 L 847.00,434.60 L 846.00,435.50 L 846.00,435.50 L 846.00,436.40 L 845.00,437.30 L 845.00,437.30 L 844.00,438.20 L 844.00,438.20 L 844.00,439.10 L 843.00,440.00 L 843.00,440.00 L 842.00,440.90 L 842.00,440.90 L 841.00,441.80 L 841.00,441.80 L 841.00,442.70 L 840.00,443.60 L 840.00,443.60 L 839.00,444.50 L 839.00,444.50 L 839.00,445.40 L 838.00,446.30 L 838.00,446.30 L 837.00,447.20 L 837.00,447.20 L 837.00,448.10 L 836.00,449.00 L 836.00,449.00 L 835.00,449.90 L 835.00,449.90 L 835.00,450.80 L 834.00,451.70 L 834.00,451.70 L 833.00,452.60 L 833.00,452.60 L 833.00,452.60 L 827.40,446.00 L 828.30,446.00 L 829.20,446.00 L 830.10,446.00 L 831.00,447.00 L 831.00,447.00 L 831.90,447.00 L 832.80,447.00 L 833.70,447.00 L 834.60,447.00 L 835.50,448.00 L 835.50,448.00 L 836.40,448.00 L 837.30,448.00 L 838.20,448.00 L 839.10,448.00 L 840.00,449.00 L 840.00,449.00 L 840.90,449.00 L 841.80,449.00 L 842.70,449.00 L 843.60,449.00 L 844.50,449.00 L 845.40,450.00 L 845.40,450.00 L 846.30,450.00 L 847.20,450.00 L 848.10,450.00 L 849.00,450.00 L 849.90,451.00 L 849.90,451.00 L 850.80,451.00 L 851.70,451.00 L 852.60,451.00 L 853.50,451.00 L 854.40,452.00 L 854.40,452.00 L 855.30,452.00 L 856.20,452.00 L 857.10,452.00 L 858.00,452.00 L 858.90,452.00 L 859.80,453.00 L 859.80,453.00 L 860.70,453.00 L 861.60,453.00 L 862.50,453.00 L 863.40,453.00 L 864.30,454.00 L 864.30,454.00 L 865.20,454.00 L 866.10,454.00 L 867.00,454.00 L 867.90,454.00 L 868.80,455.00 L 868.80,455.00 L 869.70,455.00 L 870.60,455.00 L 871.50,455.00 L 872.40,455.00 L 873.30,456.00 L 873.30,456.00 L 874.20,456.00 L 875.10,456.00 L 876.00,456.00 L 876.90,456.00 L 877.80,457.00 L 877.80,457.00 L 878.70,457.00 L 879.60,457.00 L 880.50,457.00 L 881.40,457.00 L 882.30,457.00 L 883.20,458.00 L 883.20,458.00 L 884.10,458.00 L 885.00,458.00 L 885.90,458.00 L 886.80,458.00 L 887.70,459.00 L 887.70,459.00 L 888.60,459.00 L 889.50,459.00 L 890.40,459.00 L 891.30,459.00 L 892.20,459.00 L 893.10,460.00 L 893.10,460.00 L 894.00,460.00 L 894.90,460.00 L 895.80,460.00 L 896.70,460.00 L 897.60,460.00 L 898.50,460.00 L 899.40,461.00 L 899.40,461.00 L 900.30,461.00 L 901.20,461.00 L 902.10,461.00 L 903.00,462.00 L 903.00,462.00 L 903.90,462.00 L 904.80,462.00 L 905.70,462.00 L 906.60,462.00 L 907.50,462.00 L 908.40,463.00 L 908.40,463.00 L 909.30,463.00 L 910.20,463.00 L 911.10,463.00 L 912.00,464.00 L 912.00,464.00 L 912.90,464.00 L 913.80,464.00 L 914.70,464.00 L 915.60,464.00 L 916.50,464.00 L 917.40,465.00 L 917.40,465.00 L 918.30,465.00 L 919.20,465.00 L 920.10,465.00 L 921.00,465.00 L 921.90,466.00 L 921.90,466.00 L 922.80,466.00 L 923.70,466.00 L 924.60,466.00 L 925.50,466.00 L 926.40,467.00 L 926.40,467.00 L 927.30,467.00 L 928.20,467.00 L 929.10,467.00 L 930.00,467.00 L 930.90,468.00 L 930.90,468.00 L 931.80,468.00 L 932.70,468.00 L 933.60,468.00 L 934.50,468.00 L 935.40,468.00 L 936.30,468.00 L 937.20,469.00 L 937.20,469.00 L 938.10,469.00 L 939.00,469.00 L 939.90,469.00 L 940.80,469.00 L 941.70,470.00 L 941.70,470.00 L 942.60,470.00 L 943.50,470.00 L 944.40,470.00 L 945.30,470.00 L 946.20,471.00 L 946.20,471.00 L 947.10,471.00 L 948.00,471.00 L 948.90,471.00 L 949.80,471.00 L 950.70,472.00 L 950.70,472.00 L 951.60,472.00 L 952.50,472.00 L 953.40,472.00 L 954.30,472.00 L 955.20,472.00 L 956.10,473.00 L 956.10,473.00 L 957.00,473.00 L 957.90,473.00 L 958.80,473.00 L 959.70,473.00 L 960.60,474.00 L 960.60,474.00 L 961.50,474.00 L 962.40,474.00 L 963.30,474.00 L 964.20,474.00 L 965.10,475.00 L 965.10,475.00 L 966.00,475.00 L 966.90,475.00 L 967.80,475.00 L 968.70,475.00 L 969.60,475.00 L 970.50,476.00 L 970.50,476.00 L 971.40,476.00 L 972.30,476.00 L 973.20,476.00 L 974.10,476.00 L 975.00,477.00 L 975.00,477.00 L 975.90,477.00 L 976.80,477.00 L 977.70,477.00 L 978.60,477.00 L 979.50,477.00 L 980.40,478.00 L 980.40,478.00 L 981.30,478.00 L 982.20,478.00 L 983.10,478.00 L 984.00,478.00 L 984.90,478.00 L 985.80,479.00 L 985.80,479.00 L 986.70,479.00 L 987.60,479.00 L 988.50,479.00 L 989.40,479.00 L 990.30,479.00 L 991.20,480.00 L 991.20,480.00 L 992.10,481.00 L 992.10,482.00 L 991.20,483.00 L 990.30,483.00 L 989.40,483.00 L 988.50,483.00 L 988.50,483.00 L 987.60,484.00 L 986.70,484.00 L 985.80,484.00 L 984.90,484.00 L 984.00,484.00 L 983.10,484.00 L 983.10,484.00 L 982.20,485.00 L 981.30,485.00 L 980.40,485.00 L 979.50,485.00 L 978.60,485.00 L 978.60,485.00 L 977.70,486.00 L 976.80,486.00 L 975.90,486.00 L 975.00,486.00 L 974.10,486.00 L 973.20,486.00 L 973.20,486.00 L 972.30,487.00 L 971.40,487.00 L 970.50,487.00 L 969.60,487.00 L 968.70,487.00 L 968.70,487.00 L 967.80,488.00 L 966.90,488.00 L 966.00,488.00 L 965.10,488.00 L 964.20,488.00 L 964.20,488.00 L 963.30,489.00 L 962.40,489.00 L 961.50,489.00 L 960.60,489.00 L 959.70,489.00 L 958.80,489.00 L 958.80,489.00 L 957.90,490.00 L 957.00,490.00 L 956.10,490.00 L 955.20,490.00 L 954.30,490.00 L 953.40,490.00 L 953.40,490.00 L 952.50,491.00 L 951.60,491.00 L 950.70,491.00 L 949.80,491.00 L 948.90,491.00 L 948.00,491.00 L 948.00,491.00 L 947.10,492.00 L 946.20,492.00 L 945.30,492.00 L 944.40,492.00 L 943.50,492.00 L 942.60,492.00 L 942.60,492.00 L 941.70,493.00 L 940.80,493.00 L 939.90,493.00 L 939.00,493.00 L 938.10,493.00 L 938.10,493.00 L 937.20,494.00 L 936.30,494.00 L 935.40,494.00 L 934.50,494.00 L 933.60,494.00 L 933.60,494.00 L 932.70,495.00 L 931.80,495.00 L 930.90,495.00 L 930.00,495.00 L 929.10,495.00 L 928.20,495.00 L 928.20,495.00 L 927.30,496.00 L 926.40,496.00 L 925.50,496.00 L 924.60,496.00 L 923.70,496.00 L 922.80,496.00 L 922.80,496.00 L 921.90,497.00 L 921.00,497.00 L 920.10,497.00 L 919.20,497.00 L 919.20,497.00 L 918.30,498.00 L 917.40,498.00 L 916.50,498.00 L 915.60,498.00 L 914.70,498.00 L 914.70,498.00 L 913.80,499.00 L 912.90,499.00 L 912.00,499.00 L 911.10,499.00 L 910.20,499.00 L 909.30,499.00 L 909.30,499.00 L 908.40,500.00 L 907.50,500.00 L 906.60,500.00 L 905.70,500.00 L 905.70,500.00 L 904.80,501.00 L 903.90,501.00 L 903.00,501.00 L 902.10,501.00 L 901.20,501.00 L 900.30,501.00 L 900.30,501.00 L 899.40,502.00 L 898.50,502.00 L 897.60,502.00 L 896.70,502.00 L 895.80,502.00 L 895.80,502.00 L 894.90,503.00 L 894.00,503.00 L 893.10,503.00 L 892.20,503.00 L 891.30,503.00 L 891.30,503.00 L 890.40,504.00 L 889.50,504.00 L 888.60,504.00 L 887.70,504.00 L 886.80,504.00 L 885.90,504.00 L 885.90,504.00 L 885.00,505.00 L 884.10,505.00 L 883.20,505.00 L 882.30,505.00 L 881.40,505.00 L 881.40,505.00 L 880.50,506.00 L 879.60,506.00 L 878.70,506.00 L 877.80,506.00 L 876.90,506.00 L 876.90,506.00 L 876.00,507.00 L 875.10,507.00 L 874.20,507.00 L 873.30,507.00 L 872.40,507.00 L 871.50,507.00 L 870.60,507.00 L 870.60,507.00 L 869.70,508.00 L 868.80,508.00 L 867.90,508.00 L 867.00,508.00 L 866.10,508.00 L 865.20,508.00 L 865.20,508.00 L 864.30,509.00 L 863.40,509.00 L 862.50,509.00 L 861.60,509.00 L 860.70,509.00 L 860.70,509.00 L 859.80,510.00 L 858.90,510.00 L 858.00,510.00 L 857.10,510.00 L 856.20,510.00 L 855.30,510.00 L 855.30,510.00 L 854.40,511.00 L 853.50,511.00 L 852.60,511.00 L 851.70,511.00 L 850.80,511.00 L 849.90,511.00 L 849.90,511.00 L 849.00,512.00 L 848.10,512.00 L 847.20,512.00 L 846.30,512.00 L 845.40,512.00 L 845.40,512.00 L 844.50,513.00 L 843.60,513.00 L 842.70,513.00 L 841.80,513.00 L 840.90,513.00 L 840.90,513.00 L 840.00,514.00 L 839.10,514.00 L 838.20,514.00 L 837.30,514.00 L 836.40,514.00 L 835.50,514.00 L 835.50,514.00 L 834.60,515.00 L 833.70,515.00 L 832.80,515.00 L 831.90,515.00 L 831.00,515.00 L 831.00,515.00 L 830.10,516.00 L 829.20,516.00 L 828.30,516.00 L 827.40,516.00 L 826.50,516.00 L 826.50,516.00 L 826.50,516.00 L 827.40,517.00 L 827.40,518.00 L 827.40,518.00 L 828.30,519.00 L 828.30,519.00 L 829.20,520.00 L 829.20,521.00 L 829.20,521.00 L 830.10,522.00 L 830.10,522.00 L 831.00,523.00 L 831.00,524.00 L 831.00,524.00 L 831.90,525.00 L 831.90,525.00 L 832.80,526.00 L 832.80,526.00 L 833.70,527.00 L 833.70,528.00 L 833.70,528.00 L 834.60,529.00 L 834.60,529.00 L 835.50,530.00 L 835.50,531.00 L 835.50,531.00 L 836.40,532.00 L 836.40,532.00 L 837.30,533.00 L 837.30,533.00 L 838.20,534.00 L 838.20,535.00 L 838.20,535.00 L 839.10,536.00 L 839.10,536.00 L 840.00,537.00 L 840.00,537.00 L 840.90,538.00 L 840.90,539.00 L 840.90,539.00 L 841.80,540.00 L 841.80,540.00 L 842.70,541.00 L 842.70,542.00 L 842.70,542.00 L 843.60,543.00 L 843.60,543.00 L 844.50,544.00 L 844.50,545.00 L 844.50,545.00 L 845.40,546.00 L 845.40,547.00 L 845.40,547.00 L 846.30,548.00 L 846.30,548.00 L 847.20,549.00 L 847.20,549.00 L 848.10,550.00 L 848.10,551.00 L 848.10,551.00 L 849.00,552.00 L 849.00,552.00 L 849.90,553.00 L 849.90,553.00 L 850.80,554.00 L 850.80,555.00 L 850.80,555.00 L 851.70,556.00 L 851.70,556.00 L 852.60,557.00 L 852.60,557.00 L 853.50,558.00 L 853.50,559.00 L 853.50,559.00 L 854.40,560.00 L 854.40,560.00 L 855.30,561.00 L 855.30,562.00 L 855.30,562.00 L 856.20,563.00 L 856.20,563.00 L 857.10,564.00 L 857.10,565.00 L 857.10,565.00 L 858.00,566.00 L 858.00,566.00 L 858.90,567.00 L 858.90,568.00 L 858.90,568.00 L 859.80,569.00 L 859.80,569.00 L 860.70,570.00 L 860.70,571.00 L 860.70,571.00 L 861.60,572.00 L 861.60,572.00 L 862.50,573.00 L 862.50,573.00 L 863.40,574.00 L 863.40,575.00 L 863.40,575.00 L 864.30,576.00 L 864.30,576.00 L 865.20,577.00 L 865.20,578.00 L 865.20,578.00 L 866.10,579.00 L 866.10,579.00 L 867.00,580.00 L 867.00,580.00 L 867.90,581.00 L 867.90,582.00 L 867.90,582.00 L 868.80,583.00 L 868.80,583.00 L 869.70,584.00 L 869.70,585.00 L 869.70,585.00 L 870.60,586.00 L 870.60,586.00 L 871.50,587.00 L 871.50,588.00 L 871.50,588.00 L 872.40,589.00 L 872.40,589.00 L 873.30,590.00 L 873.30,590.00 L 874.20,591.00 L 874.20,592.00 L 874.20,592.00 L 875.10,593.00 L 875.10,593.00 L 876.00,594.00 L 876.00,595.00 L 876.00,595.00 L 876.90,596.00 L 876.90,596.00 L 877.80,597.00 L 877.80,598.00 L 877.80,598.00 L 878.70,599.00 L 878.70,599.00 L 879.60,600.00 L 879.60,601.00 L 878.70,602.00 L 877.80,602.00 L 876.90,601.00 L 876.90,601.00 L 876.00,601.00 L 875.10,600.00 L 875.10,600.00 L 874.20,599.00 L 874.20,599.00 L 873.30,599.00 L 872.40,598.00 L 872.40,598.00 L 871.50,597.00 L 871.50,597.00 L 870.60,597.00 L 869.70,596.00 L 869.70,596.00 L 868.80,595.00 L 868.80,595.00 L 867.90,595.00 L 867.00,594.00 L 867.00,594.00 L 866.10,593.00 L 866.10,593.00 L 865.20,592.00 L 865.20,592.00 L 864.30,592.00 L 863.40,591.00 L 863.40,591.00 L 862.50,590.00 L 862.50,590.00 L 861.60,590.00 L 860.70,589.00 L 860.70,589.00 L 859.80,588.00 L 859.80,588.00 L 858.90,588.00 L 858.00,587.00 L 858.00,587.00 L 857.10,586.00 L 857.10,586.00 L 856.20,586.00 L 855.30,585.00 L 855.30,585.00 L 854.40,584.00 L 854.40,584.00 L 853.50,584.00 L 852.60,583.00 L 852.60,583.00 L 851.70,582.00 L 851.70,582.00 L 850.80,581.00 L 850.80,581.00 L 849.90,581.00 L 849.00,580.00 L 849.00,580.00 L 848.10,579.00 L 848.10,579.00 L 847.20,579.00 L 846.30,578.00 L 846.30,578.00 L 845.40,578.00 L 844.50,577.00 L 844.50,577.00 L 843.60,576.00 L 843.60,576.00 L 842.70,575.00 L 842.70,575.00 L 841.80,575.00 L 840.90,574.00 L 840.90,574.00 L 840.00,573.00 L 840.00,573.00 L 839.10,573.00 L 838.20,572.00 L 838.20,572.00 L 837.30,571.00 L 837.30,571.00 L 836.40,571.00 L 835.50,570.00 L 835.50,570.00 L 834.60,569.00 L 834.60,569.00 L 833.70,569.00 L 832.80,568.00 L 832.80,568.00 L 831.90,567.00 L 831.90,567.00 L 831.00,567.00 L 830.10,566.00 L 830.10,566.00 L 829.20,565.00 L 829.20,565.00 L 828.30,565.00 L 827.40,564.00 L 827.40,564.00 L 826.50,563.00 L 826.50,563.00 L 825.60,563.00 L 824.70,562.00 L 824.70,562.00 L 823.80,561.00 L 823.80,561.00 L 822.90,561.00 L 822.00,560.00 L 822.00,560.00 L 821.10,559.00 L 821.10,559.00 L 820.20,559.00 L 819.30,558.00 L 819.30,558.00 L 818.40,557.00 L 818.40,557.00 L 817.50,557.00 L 816.60,556.00 L 816.60,556.00 L 815.70,555.00 L 815.70,555.00 L 814.80,555.00 L 813.90,554.00 L 813.90,554.00 L 813.00,553.00 L 813.00,553.00 L 812.10,552.00 L 812.10,552.00 L 811.20,552.00 L 810.30,551.00 L 810.30,551.00 L 809.40,550.00 L 809.40,550.00 L 808.50,550.00 L 807.60,549.00 L 807.60,549.00 L 806.70,549.00 L 805.80,548.00 L 805.80,548.00 L 804.90,547.00 L 804.90,547.00 L 804.00,547.00 L 803.10,546.00 L 803.10,546.00 L 802.20,545.00 L 802.20,545.00 L 801.30,545.00 L 800.40,544.00 L 800.40,544.00 L 799.50,543.00 L 799.50,543.00 L 798.60,543.00 L 797.70,542.00 L 797.70,542.00 L 797.70,542.00 L 797.70,543.00 L 797.70,544.00 L 801.00,541.70 L 801.00,542.60 L 801.00,543.50 L 801.00,544.40 L 801.00,545.30 L 800.00,546.20 L 800.00,546.20 L 800.00,547.10 L 800.00,548.00 L 800.00,548.90 L 800.00,549.80 L 800.00,550.70 L 800.00,551.60 L 800.00,552.50 L 799.00,553.40 L 799.00,553.40 L 799.00,554.30 L 799.00,555.20 L 799.00,556.10 L 799.00,557.00 L 799.00,557.90 L 799.00,558.80 L 798.00,559.70 L 798.00,559.70 L 798.00,560.60 L 798.00,561.50 L 798.00,562.40 L 798.00,563.30 L 798.00,564.20 L 798.00,565.10 L 798.00,566.00 L 797.00,566.90 L 797.00,566.90 L 797.00,567.80 L 797.00,568.70 L 797.00,569.60 L 797.00,570.50 L 797.00,571.40 L 797.00,572.30 L 797.00,573.20 L 797.00,574.10 L 796.00,575.00 L 796.00,575.00 L 796.00,575.90 L 796.00,576.80 L 796.00,577.70 L 796.00,578.60 L 796.00,579.50 L 796.00,580.40 L 795.00,581.30 L 795.00,581.30 L 795.00,582.20 L 795.00,583.10 L 795.00,584.00 L 795.00,584.90 L 795.00,585.80 L 795.00,586.70 L 795.00,587.60 L 794.00,588.50 L 794.00,588.50 L 794.00,589.40 L 794.00,590.30 L 794.00,591.20 L 794.00,592.10 L 794.00,593.00 L 794.00,593.90 L 793.00,594.80 L 793.00,594.80 L 793.00,595.70 L 793.00,596.60 L 793.00,597.50 L 793.00,598.40 L 792.00,599.30 L 792.00,599.30 L 792.00,600.20 L 792.00,601.10 L 792.00,602.00 L 792.00,602.90 L 792.00,603.80 L 792.00,604.70 L 792.00,605.60 L 791.00,606.50 L 791.00,606.50 L 791.00,607.40 L 791.00,608.30 L 791.00,609.20 L 791.00,610.10 L 791.00,611.00 L 791.00,611.90 L 790.00,612.80 L 790.00,612.80 L 790.00,613.70 L 790.00,614.60 L 790.00,615.50 L 790.00,616.40 L 790.00,617.30 L 790.00,618.20 L 789.00,619.10 L 789.00,619.10 L 789.00,620.00 L 789.00,620.90 L 789.00,621.80 L 789.00,622.70 L 789.00,623.60 L 788.00,624.50 L 788.00,624.50 L 788.00,625.40 L 788.00,626.30 L 788.00,627.20 L 788.00,628.10 L 788.00,629.00 L 787.00,629.90 L 787.00,629.90 L 787.00,630.80 L 787.00,631.70 L 787.00,632.60 L 787.00,633.50 L 787.00,634.40 L 787.00,635.30 L 786.00,636.20 L 786.00,636.20 L 786.00,637.10 L 786.00,638.00 L 786.00,638.90 L 786.00,639.80 L 786.00,640.70 L 786.00,641.60 L 785.00,642.50 L 785.00,642.50 L 785.00,643.40 L 785.00,644.30 L 785.00,645.20 L 785.00,646.10 L 785.00,647.00 L 784.00,647.90 L 784.00,647.90 L 784.00,648.80 L 784.00,649.70 L 784.00,650.60 L 784.00,651.50 L 784.00,652.40 L 784.00,653.30 L 783.00,654.20 L 783.00,654.20 L 783.00,655.10 L 783.00,656.00 L 783.00,656.90 L 783.00,657.80 L 783.00,658.70 L 783.00,659.60 L 783.00,660.50 L 783.00,661.40 L 782.00,662.30 L 782.00,662.30 L 782.00,663.20 L 782.00,664.10 L 782.00,665.00 L 782.00,665.90 L 782.00,666.80 L 782.00,667.70 L 781.00,668.60 L 781.00,668.60 L 781.00,669.50 L 781.00,670.40 L 781.00,671.30 L 781.00,672.20 L 781.00,673.10 L 781.00,674.00 L 781.00,674.90 L 781.00,675.80 L 780.00,676.70 L 780.00,676.70 L 780.00,677.60 L 780.00,678.50 L 780.00,679.40 L 780.00,680.30 L 780.00,681.20 L 780.00,682.10 L 779.00,683.00 L 779.00,683.00 L 779.00,683.90 L 779.00,684.80 L 779.00,685.70 L 779.00,686.60 L 779.00,687.50 L 779.00,688.40 L 779.00,689.30 L 778.00,690.20 L 778.00,690.20 L 778.00,691.10 L 778.00,692.00 L 778.00,692.90 L 778.00,693.80 L 778.00,694.70 L 778.00,695.60 L 778.00,696.50 L 778.00,697.40 L 777.00,698.30 L 777.00,698.30 L 777.00,699.20 L 777.00,700.10 L 777.00,701.00 L 777.00,701.90 L 777.00,702.80 L 777.00,703.70 L 776.00,704.60 L 776.00,704.60 L 776.00,705.50 L 776.00,706.40 L 776.00,707.30 L 776.00,708.20 L 776.00,709.10 L 776.00,710.00 L 775.00,710.90 L 775.00,710.90 L 775.00,711.80 L 775.00,712.70 L 775.00,713.60 L 775.00,714.50 L 775.00,715.40 L 774.00,716.30 L 774.00,716.30 L 774.00,717.20 L 774.00,718.10 L 774.00,719.00 L 774.00,719.90 L 774.00,720.80 L 774.00,721.70 L 773.00,722.60 L 773.00,722.60 L 773.00,723.50 L 773.00,724.40 L 773.00,725.30 L 773.00,726.20 L 773.00,727.10 L 773.00,728.00 L 772.00,728.90 L 772.00,728.90 L 772.00,729.80 L 772.00,730.70 L 772.00,731.60 L 772.00,732.50 L 772.00,733.40 L 772.00,734.30 L 771.00,735.20 L 771.00,735.20 L 771.00,736.10 L 771.00,737.00 L 771.00,737.90 L 771.00,738.80 L 771.00,739.70 L 771.00,740.60 L 770.00,741.50 L 770.00,741.50 L 770.00,742.40 L 770.00,743.30 L 770.00,744.20 L 770.00,745.10 L 770.00,746.00 L 770.00,746.90 L 770.00,747.80 L 769.00,748.70 L 769.00,748.70 L 769.00,749.60 L 769.00,750.50 L 769.00,751.40 L 769.00,752.30 L 769.00,753.20 L 769.00,754.10 L 769.00,755.00 L 768.00,755.90 Z" fill="#9A9A3A" stroke="none" /><path d="M 733.00,428.30 L 732.00,427.40 L 733.00,426.50 L 734.00,427.40 L 733.00,428.30 Z" fill="#9A9A3A" stroke="none" /></svg>